<?xml version="1.0" encoding="UTF-8" standalone="no"?><!DOCTYPE svg PUBLIC "-//W3C//DTD SVG 1.1//EN" "http://www.w3.org/Graphics/SVG/1.1/DTD/svg11.dtd"><svg width="100%" height="100%" viewBox="0 0 250 150" version="1.1" xmlns="http://www.w3.org/2000/svg" xmlns:xlink="http://www.w3.org/1999/xlink" xml:space="preserve" xmlns:serif="http://www.serif.com/" style="fill-rule:evenodd;clip-rule:evenodd;stroke-linejoin:round;stroke-miterlimit:2;"><g id="Logo"><path d="M12.7912,39.7248l38.4621,-10.0717l11.7905,0.3473l37.0884,10.0717l-0.1145,27.4366c0,0 -11.4479,39.3533 -41.6105,55.9151c0,0 -35.3137,-16.5076 -44.4713,-54.9818l-1.1447,-28.7172Z" style="fill:#3c3c34;"/><path d="M78.0146,41.3924c0,0 1.7638,20.4687 -6.6141,28.5255c-8.3779,8.0568 -30.5351,26.2698 -30.4248,37.5232l-0.4409,9.7291c0,0 -2.5354,-2.0686 -4.2992,-4.355l0.7716,-8.7101c0,0 3.5275,-13.0533 15.9841,-21.9232c0,0 16.425,-14.7492 18.4092,-18.6687c0,0 7.6062,-16.2604 6.6141,-22.1208Z" style="fill:#264a4a;"/><path d="M46.7387,115.1392c3.4498,2.5344 7.2201,4.7992 11.3298,6.6578l0,-0.1111c32.4996,-19.9021 39.9449,-53 39.9449,-53l0.5556,-27.4551c0.5556,-0.6667 -37,-9.6667 -37,-9.6667l-2.1111,-6.7778c11.7778,-2.9707 45.7778,11.9707 45.7778,11.9707l-1.2222,33.2754c-3.8889,36.6088 -45.9449,60.4444 -45.9449,60.4444c0,0 -46,-23.8357 -49.8889,-60.4444l-1.2222,-33.2754c0,0 34,-14.9413 45.7778,-11.9707l-2.1111,6.7778c0,0 -37.5555,9 -37,9.6667l1.2222,27.6773c0,0 7.5756,25.3888 27.3893,42.6245l0,-0.1209l3.1111,-10.4444c1.6667,-4.5556 28.3333,-30.8889 28.3333,-30.8889c5.4444,-5 6.8889,-19.6667 6.8889,-19.6667c1.4444,4 -0.2222,14.1111 -0.2222,14.1111c-0.6667,8.6667 -24.2502,30.7778 -24.2502,30.7778c-6.9569,5.3635 -8.9416,13.6655 -9.3578,19.8386Z" style="fill:#614338;"/><g id="Cross"><path d="M49.7912,115.8368l0,-6.2222c0,0 4.7769,-10.7778 8.2774,-13.3333l0,25.0313c0,0 -6.8329,-2.3647 -8.2774,-5.4758Z" style="fill:#878786;"/><path d="M52.1245,79.1701l5.944,-5.3333l0,-9.2222l10.1671,-0.8889l3.1111,-4.8889l-13.2782,-0.2222l0,-13.8889l-5.4996,4.2222l0,9.3333l-12.8889,-0.2222l-5.4444,5.5556l18.1111,-0.1111l-0.2222,15.6667Z" style="fill:#878786;"/></g><g id="Fire"><path d="M51.0889,55.5611c-4.5269,-2.0563 -9.7553,-6.9432 -4.608,-18.305c0,0 -0.32,8.2349 2.304,5.3549l7.3116,-23.4669l7.7924,22.2483c0,0 2.048,1.265 2.048,-3.3236c0,0 5.1426,14.4581 -5.8059,18.1234l-0.0181,-14.7998l-9.024,6.1466l0,8.0221Z" style="fill:#ff8100;"/><path d="M56.0965,28.2961c0,0 5.1389,18.2136 7.1697,13.0963c0,0 0.3027,8.5786 -2.5133,8.7066l-0.1755,-9.6965l-8.7205,6.4325c0,0 -3.5562,0.5814 -2.9301,-2.1093c0,0 1.7141,1.5973 2.6741,-1.2827c0.96,-2.88 4.4956,-15.1469 4.4956,-15.1469Z" style="fill:#ffb100;"/></g></g><g id="Title"><path d="M125,83.9996l0.0227,-1.0399c0.1666,-0.0481 0.443,-0.1196 0.8293,-0.2145c0.3862,-0.0951 0.7725,-0.2043 1.1587,-0.3277l0.2158,-0.1709c0.0757,-0.3799 0.1136,-0.7693 0.1136,-1.1682l0,-0.0853l-0.0454,-3.2906l0.0114,-1.3817l-0.0454,-2.0371l0.0227,-2.4216l-0.1363,-4.7721c-0.1136,-0.1331 -0.4809,-0.2661 -1.1019,-0.3992c-0.1515,-0.038 -0.3711,-0.1141 -0.6589,-0.2281l-0.2726,-0.0855l0,-0.998l1.4995,0.0713c0.9088,0.1141 2.2455,0.1711 4.0101,0.1711c0.8861,0 1.81,-0.0285 2.7719,-0.0855l0.2158,-0.0143l0.5566,0.0143l0.2272,-0.0143l0.4771,0l2.0335,-0.0855c0.0909,0 0.2102,-0.0095 0.3578,-0.0285c0.1477,-0.019 0.2859,-0.0333 0.4146,-0.0428c0.0454,0.2852 0.0757,0.5703 0.0909,0.8555l0.1704,2.6805c0,0.2852 -0.0227,0.5038 -0.0682,0.6559c-0.2726,0.0475 -0.4733,0.0713 -0.6021,0.0713c-0.1515,0 -0.2726,-0.0428 -0.3635,-0.1283c-0.0454,-0.057 -0.1325,-0.2709 -0.2613,-0.6416c-0.3181,-0.96 -0.5888,-1.528 -0.8122,-1.7038c-0.2234,-0.1758 -0.8463,-0.2638 -1.8687,-0.2638l-1.5677,0.057c-0.6665,0.0095 -1.1928,0.057 -1.5791,0.1426c-0.0833,0.019 -0.2045,0.0665 -0.3635,0.1426c-0.0985,0.2191 -0.1477,0.5001 -0.1477,0.843l0.0341,1.7005l-0.0341,1.9431c0,0.9908 0.0265,1.6004 0.0795,1.829c0.0682,0.0573 0.125,0.0908 0.1704,0.1005l0.8066,0.0143l1.3632,0c0.3029,0 0.7687,-0.0475 1.3973,-0.1426c0.4317,-0.0665 0.6968,-0.1426 0.7952,-0.2281c0.1818,-0.1521 0.3124,-0.3446 0.3919,-0.5774c0.0795,-0.2329 0.1382,-0.8008 0.1761,-1.7038c0.0379,0 0.4847,-0.0285 0.5226,-0.0285c0.0833,0 0.2499,0.0143 0.4998,0.0428l-0.0682,2.2812c-0.0076,0.4848 -0.0227,0.903 -0.0454,1.2547l0.0227,0.3137c0.0076,0.0951 0.0114,0.7984 0.0114,2.1101c0,0.0855 -0.0038,0.2281 -0.0114,0.4277c-0.1439,0.038 -0.2575,0.057 -0.3408,0.057c-0.0606,0 -0.2083,-0.0285 -0.443,-0.0855c-0.0682,-0.1806 -0.1439,-0.442 -0.2272,-0.7842c-0.1742,-0.7509 -0.3635,-1.1881 -0.568,-1.3117c-0.3635,-0.2281 -1.5071,-0.3422 -3.4308,-0.3422c-0.2802,0 -0.6059,0.0333 -0.977,0.0998c-0.053,0.3992 -0.0795,0.8602 -0.0795,1.383l0.0568,4.2773c0.0076,0.7889 0.0757,1.2737 0.2045,1.4543c0.0833,0.1141 0.3673,0.2281 0.852,0.3422l0.2272,0.0285c0.3408,0.0285 0.64,0.0903 0.8975,0.1854l0.3067,0.0867c0.0303,0.25 0.0454,0.4423 0.0454,0.577c0,0.1442 -0.0114,0.327 -0.0341,0.5483l-0.2158,-0.0145l-0.3522,0.0145l-1.6131,-0.1123c-0.1818,-0.0107 -1.03,-0.016 -2.5447,-0.016c-0.4165,0 -0.8141,0.0285 -1.1928,0.0855c-0.5983,0.0855 -0.924,0.1283 -0.977,0.1283c-0.4923,0 -0.8293,-0.0048 -1.0111,-0.0143Z" style="fill:#c79f5a;fill-rule:nonzero;"/><path d="M148.2655,81.2336l0.2613,0.2139c0.0682,0.0665 0.1098,0.1473 0.125,0.2424l0.0114,0.0713c-0.1818,0.846 -0.4203,1.4282 -0.7157,1.7466c-0.2954,0.3184 -0.6627,0.4776 -1.1019,0.4776c-0.4468,0 -0.8312,-0.1545 -1.1531,-0.4634c-0.3219,-0.3089 -0.6153,-0.8531 -0.8804,-1.6325c-0.3257,0.7224 -0.7838,1.2666 -1.3746,1.6325c-0.5907,0.3659 -1.314,0.5489 -2.1698,0.5489c-0.7876,0 -1.367,-0.2067 -1.7381,-0.6202c-0.3711,-0.4135 -0.5566,-0.9576 -0.5566,-1.6325c0,-0.3137 0.0549,-0.6321 0.1647,-0.9553c0.1098,-0.3232 0.2878,-0.644 0.5339,-0.9624c0.2461,-0.3184 0.6418,-0.6677 1.1871,-1.0479c0.0833,-0.057 0.3711,-0.2186 0.8634,-0.4848l2.8287,-1.4258c0.0227,-0.3612 0.0341,-0.7271 0.0341,-1.0978c0,-1.2832 -0.125,-2.1577 -0.3749,-2.6234c-0.1515,-0.2852 -0.4165,-0.4277 -0.7952,-0.4277c-0.3787,0 -0.727,0.0903 -1.0451,0.2709c-0.3181,0.1806 -0.5491,0.4135 -0.693,0.6986c-0.106,0.2091 -0.1969,0.6036 -0.2726,1.1834c-0.053,0.4182 -0.1022,0.6606 -0.1477,0.7271c-0.1136,0.1806 -0.32,0.3446 -0.6191,0.4919c-0.2992,0.1473 -0.5017,0.2543 -0.6078,0.3208c-0.409,0.2471 -0.7346,0.3707 -0.977,0.3707c-0.106,-0.1141 -0.159,-0.2756 -0.159,-0.4848c0,-0.5418 0.0909,-1.0075 0.2726,-1.3973c0.2726,-0.5513 0.6835,-1.086 1.2326,-1.604c0.5491,-0.518 1.0622,-0.8816 1.5393,-1.0907c0.6513,-0.2661 1.4465,-0.3992 2.3856,-0.3992c0.6059,0 1.1265,0.1402 1.562,0.4206c0.4355,0.2804 0.7384,0.6963 0.9088,1.2476c0.1704,0.5513 0.2556,1.5446 0.2556,2.9799l-0.0341,2.3525l0.0227,1.7252l0,0.442c0,0.3992 0.0435,0.6725 0.1306,0.8198c0.0871,0.1473 0.1988,0.221 0.3351,0.221c0.0833,0 0.1553,-0.0285 0.2158,-0.0855l0.3408,-0.6701l0.2045,-0.0998Zm-3.7261,-3.3078c-0.4317,0.1806 -0.9183,0.4824 -1.4598,0.9054c-0.5415,0.423 -0.9183,0.8483 -1.1303,1.2761c-0.1515,0.3137 -0.2272,0.6986 -0.2272,1.1549c0,0.4087 0.0985,0.7462 0.2954,1.0123c0.1969,0.2661 0.4241,0.3992 0.6816,0.3992c0.4241,0 0.7838,-0.1521 1.0792,-0.4562c0.4014,-0.4087 0.6362,-0.7343 0.7043,-0.9767c0.0682,-0.2424 0.1022,-0.9291 0.1022,-2.0602c0,-0.4182 -0.0151,-0.8365 -0.0454,-1.2547Z" style="fill:#c79f5a;fill-rule:nonzero;"/><path d="M150.8557,66.9046c0,-0.5133 0.1325,-0.9339 0.3976,-1.2618c0.2651,-0.3279 0.6059,-0.4919 1.0224,-0.4919c0.4468,0 0.8179,0.1735 1.1133,0.5204c0.2954,0.3469 0.443,0.739 0.443,1.1763c0,0.3232 -0.0587,0.6464 -0.1761,0.9695c-0.1174,0.3232 -0.3029,0.5822 -0.5566,0.777c-0.2537,0.1949 -0.5131,0.2923 -0.7782,0.2923c-0.3635,0 -0.6986,-0.1949 -1.0054,-0.5846c-0.3067,-0.3897 -0.4601,-0.8555 -0.4601,-1.3973Zm-1.5904,17.0095l-0.0227,-0.9268l1.2837,-0.2139c0.1893,-0.0665 0.32,-0.164 0.3919,-0.2923c0.0719,-0.1283 0.1079,-0.4159 0.1079,-0.8626l0,-0.1568c0,-0.1141 0.0057,-0.3208 0.017,-0.6202c0.0114,-0.2994 0.017,-0.5632 0.017,-0.7913c0,-0.1806 -0.0114,-0.5275 -0.0341,-1.0408l0.0114,-0.7129l-0.0114,-0.6701l0.0227,-2.324c0,-0.2947 -0.0227,-0.5988 -0.0682,-0.9125c-0.0833,-0.1426 -0.2348,-0.2661 -0.4544,-0.3707c-0.2196,-0.1046 -0.6021,-0.1806 -1.1474,-0.2281l0,-0.7984c0.7801,-0.057 1.4655,-0.2614 2.0562,-0.6131c0.4014,-0.2281 0.8369,-0.6321 1.3064,-1.2119l0.7611,0c0.0303,1.1786 0.0454,2.709 0.0454,4.591l-0.0795,5.8172c0,0.3992 0.0151,0.7604 0.0454,1.0836c0.2348,0.1046 0.6172,0.2091 1.1474,0.3137c0.2045,0.038 0.3673,0.0855 0.4885,0.1426l-0.0114,0.7842c-0.2045,0.0095 -0.356,0.0143 -0.4544,0.0143c-0.1136,0 -0.2878,-0.0095 -0.5226,-0.0285c-0.7725,-0.0475 -1.8063,-0.0713 -3.1013,-0.0713c-0.3711,0 -0.7308,0.0166 -1.0792,0.0499c-0.3484,0.0333 -0.5869,0.0499 -0.7157,0.0499Z" style="fill:#c79f5a;fill-rule:nonzero;"/><path d="M156.1154,73.1016c0.8937,-0.4745 1.5393,-0.9396 1.9369,-1.3953c0.3976,-0.4557 0.8236,-1.196 1.278,-2.2211l0.6362,0c0.0682,0.2471 0.1022,0.5085 0.1022,0.7842c0,0.4943 -0.0038,0.8792 -0.0114,1.1549l-0.0341,0.8412c0,0.0475 0.0038,0.1568 0.0114,0.3279l0.2613,0.0143c0.0379,0 0.3938,-0.019 1.0679,-0.057c0.053,0 0.337,-0.0095 0.852,-0.0285c0.0454,0.2541 0.0682,0.48 0.0682,0.6777c0,0.2165 -0.0265,0.4707 -0.0795,0.7626c-0.2499,0.0569 -0.4393,0.0853 -0.568,0.0853c-0.0606,0 -0.1818,-0.019 -0.3635,-0.057l-0.5907,0l-0.2045,-0.014l-0.5453,0.0426l-0.0227,5.4467c-0.0076,1.0551 0.0095,1.7133 0.0511,1.9747c0.0417,0.2614 0.1306,0.5109 0.267,0.7485c0.1742,0.1044 0.3673,0.1566 0.5794,0.1566c0.2045,0 0.356,-0.0237 0.4544,-0.0711c0.0985,-0.0475 0.2651,-0.1851 0.4998,-0.4128c0.0454,-0.0475 0.1174,-0.114 0.2158,-0.1994c0.1818,0.1803 0.3294,0.3606 0.443,0.5409l0.0454,0.1709c-0.2651,0.5228 -0.6381,0.9339 -1.119,1.2333c-0.4809,0.2994 -0.994,0.4491 -1.5393,0.4491c-0.7043,0 -1.2761,-0.28 -1.7154,-0.8399c-0.4393,-0.5601 -0.6589,-1.4286 -0.6589,-2.6056l0.0454,-2.5058l0,-4.0577l-0.3522,-0.0285l-0.8179,0.0285l-0.1477,-0.0711c-0.0454,-0.0847 -0.0682,-0.1646 -0.0682,-0.2399c0,-0.0564 0.0076,-0.2681 0.0227,-0.6351Z" style="fill:#c79f5a;fill-rule:nonzero;"/><path d="M163.1473,83.0158c0.1212,-0.038 0.4582,-0.0951 1.0111,-0.1711c0.2423,-0.038 0.3938,-0.1046 0.4544,-0.1996c0.0757,-0.1426 0.1136,-0.48 0.1136,-1.0123l0,-1.0123l0.0341,-1.0693l0,-1.1691l0.0114,-0.2852l-0.0114,-0.7129l0.0227,-0.2424l0.0454,-5.1756l0,-0.3992c0,-1.768 -0.0379,-2.8611 -0.1136,-3.2793c-0.0454,-0.2471 -0.1534,-0.442 -0.3238,-0.5846c-0.1704,-0.1426 -0.5699,-0.2756 -1.1985,-0.3992l0,-0.2994c0,-0.1426 0.0076,-0.3184 0.0227,-0.5275l0.9543,-0.2566c0.1893,-0.0665 0.3711,-0.1236 0.5453,-0.1711c0.4241,-0.1141 0.958,-0.3517 1.6018,-0.7129c0.1136,-0.0855 0.2196,-0.1568 0.3181,-0.2139l0.6134,0.057l-0.0227,8.5261c0.6892,-0.6844 1.3178,-1.1691 1.8858,-1.4543c0.568,-0.2852 1.1587,-0.4277 1.7722,-0.4277c0.5832,0 1.0887,0.1307 1.5166,0.3921c0.4279,0.2614 0.7592,0.5846 0.994,0.9695c0.2348,0.385 0.4014,0.8531 0.4998,1.4044c0.0682,0.3707 0.1022,1.0836 0.1022,2.1387l0,0.9125l0.0114,2.0103l-0.0568,2.9086c0.0303,0.0855 0.0644,0.1426 0.1022,0.1711c0.0909,0.0475 0.3143,0.1141 0.6702,0.1996c0.2045,0.0475 0.3635,0.0903 0.4771,0.1283c0.0606,0.1415 0.0909,0.2547 0.0909,0.3395l-0.0114,0.1132c-0.0151,0.1038 -0.0227,0.2595 -0.0227,0.4669l-0.2613,0.0214c-0.1136,0 -0.337,-0.019 -0.6702,-0.057c-0.6362,-0.076 -1.1701,-0.1141 -1.6018,-0.1141c-0.2802,0 -0.6551,0.019 -1.1247,0.057c-0.3332,0.019 -0.7573,0.0285 -1.2723,0.0285c-0.0833,0 -0.159,-0.0143 -0.2272,-0.0428l0,-0.3422l-0.0227,-0.1854c0,-0.076 0.0189,-0.1806 0.0568,-0.3137c0.1742,-0.1046 0.3768,-0.1735 0.6078,-0.2067c0.231,-0.0333 0.4487,-0.0689 0.6532,-0.1069c0.0303,-0.1806 0.0492,-0.2947 0.0568,-0.3422l0.0568,-2.0816l0,-3.4932c0,-1.0361 -0.0454,-1.7371 -0.1363,-2.103c-0.0909,-0.3659 -0.2802,-0.6654 -0.568,-0.8982c-0.2878,-0.2329 -0.6362,-0.3493 -1.0451,-0.3493c-0.4771,0 -0.941,0.1402 -1.3916,0.4206c-0.4506,0.2804 -0.835,0.6107 -1.1531,0.9909l0,2.4951c0,1.3687 -0.0114,2.3953 -0.0341,3.0797c-0.0151,0.4087 -0.0227,0.6654 -0.0227,0.7699c0,0.6559 0.0341,1.1074 0.1022,1.3545c0.0303,0.1141 0.1136,0.2186 0.2499,0.3137c0.2802,0.0285 0.5131,0.0451 0.6986,0.0499c0.1855,0.0048 0.3351,0.0261 0.4487,0.0642c0.0151,0.2342 0.0227,0.3982 0.0227,0.4919c0,0.1311 -0.0151,0.2904 -0.0454,0.4776l-1.261,-0.0642c-0.4771,-0.0428 -0.905,-0.0642 -1.2837,-0.0642l-1.5904,0.0998l-1.1133,-0.0143c-0.0757,-0.1331 -0.1553,-0.3707 -0.2386,-0.7129l0,-0.1854Z" style="fill:#c79f5a;fill-rule:nonzero;"/><path d="M188.9235,66.819c0.053,0.2756 0.1136,0.8198 0.1818,1.6325c0.0682,0.8127 0.1022,1.4044 0.1022,1.7751c0,0.1426 -0.0265,0.3184 -0.0795,0.5275c-0.3257,-0.0095 -0.6021,-0.0475 -0.8293,-0.1141c-0.5756,-1.1121 -0.9808,-1.8107 -1.2155,-2.0959c-0.4393,-0.5323 -1.0035,-0.9838 -1.6927,-1.3545c-0.5074,-0.2756 -1.0906,-0.4135 -1.7495,-0.4135c-1.2648,0 -2.3781,0.7123 -3.3399,2.1369c-0.9618,1.4244 -1.4427,3.5422 -1.4427,6.3534c0,1.32 0.1874,2.6021 0.5623,3.8463c0.3749,1.244 0.9372,2.2198 1.687,2.9273c0.7498,0.7075 1.6321,1.0613 2.6469,1.0613c0.4923,0 1.0148,-0.0804 1.5677,-0.2413c0.2802,-0.0757 0.5074,-0.2272 0.6816,-0.4542c0.1212,-0.1515 0.2007,-0.3786 0.2386,-0.6815c0.0606,-0.5489 0.0909,-1.3298 0.0909,-2.3425c0,-0.9842 -0.0114,-1.6609 -0.0341,-2.0299c-0.053,-0.142 -0.1041,-0.2342 -0.1534,-0.2767c-0.0492,-0.0426 -0.2026,-0.1113 -0.4601,-0.2061l-1.0111,-0.3406c-0.2196,-0.0665 -0.356,-0.1473 -0.409,-0.2424c-0.0151,-0.1236 -0.0227,-0.2139 -0.0227,-0.2709c0,-0.1331 0.0265,-0.3184 0.0795,-0.5561c0.1363,-0.057 0.231,-0.0855 0.284,-0.0855c0.8255,0 1.5412,0.0342 2.1471,0.1027c0.2121,0.0171 0.443,0.0256 0.693,0.0256l1.7949,-0.0285l0.7611,-0.0285c0.0909,-0.0095 0.3446,0 0.7611,0.0285c0.0076,0.2471 0.0114,0.4562 0.0114,0.6273c0,0.1046 -0.0265,0.2234 -0.0795,0.3564c-0.1287,0.0968 -0.3484,0.2179 -0.6589,0.3631c-0.3105,0.1451 -0.4847,0.2419 -0.5226,0.2903c-0.0606,0.0759 -0.1022,0.1946 -0.125,0.356c-0.0227,0.1613 -0.0341,0.7259 -0.0341,1.6938c0,1.1198 -0.0038,1.7889 -0.0114,2.0072c-0.0303,0.7022 -0.0454,1.1007 -0.0454,1.1956c0,0.3511 -0.0379,0.5693 -0.1136,0.6547c-0.2121,0.2657 -0.8691,0.567 -1.971,0.904c-1.1019,0.3368 -2.3837,0.5053 -3.8454,0.5053c-1.0224,0 -1.9104,-0.1022 -2.664,-0.3065c-0.7536,-0.2044 -1.3954,-0.5062 -1.9255,-0.9054c-0.7119,-0.5323 -1.3216,-1.1786 -1.829,-1.9391c-0.5074,-0.7604 -0.8861,-1.5826 -1.136,-2.4666c-0.3484,-1.2547 -0.5226,-2.5046 -0.5226,-3.7498c0,-1.3973 0.2575,-2.8135 0.7725,-4.2488c0.3787,-1.0361 0.9107,-1.9699 1.5961,-2.8016c0.6854,-0.8317 1.5431,-1.4947 2.5731,-1.989c1.03,-0.4943 2.1509,-0.7414 3.3626,-0.7414c0.1515,0 0.3976,0.0238 0.7384,0.0713c0.924,0 1.7873,0.145 2.5901,0.4349c0.8028,0.2899 1.4692,0.6345 1.9994,1.0337Z" style="fill:#264a4a;fill-rule:nonzero;"/><path d="M191.718,72.5506c0.0833,-0.038 0.1515,-0.0665 0.2045,-0.0855l3.3853,0l0.2499,0.0285l0.0114,0.9539l-0.0227,1.3953l0.0114,0.7263l-0.0114,2.1498l0,1.4665c0,0.9587 0.0417,1.7133 0.125,2.2639c0.1136,0.4176 0.2973,0.7332 0.551,0.9468c0.2537,0.2136 0.5623,0.3204 0.9259,0.3204c0.3408,0 0.6172,-0.0427 0.8293,-0.1281c0.2121,-0.0854 0.4563,-0.2468 0.7327,-0.4841c0.2764,-0.2373 0.4525,-0.4082 0.5282,-0.5126c0.2196,-0.3037 0.3711,-0.5838 0.4544,-0.8401l0.0795,-3.5444c0.0151,-0.3701 0.0227,-0.6738 0.0227,-0.9112c0,-0.2467 -0.0057,-0.5575 -0.017,-0.9323c-0.0114,-0.3749 -0.017,-0.586 -0.017,-0.6334l0.0114,-0.5266l-0.0227,-0.3132c-0.1818,-0.1423 -0.4355,-0.2324 -0.7611,-0.2705l-0.7611,-0.0713c-0.0454,-0.0285 -0.0871,-0.0618 -0.125,-0.0998c-0.0303,-0.1901 -0.0454,-0.3327 -0.0454,-0.4277c0,-0.1141 0.0114,-0.2756 0.0341,-0.4848c0.2499,-0.0475 0.4658,-0.0713 0.6475,-0.0713l1.7495,0.0285c0.4696,0 1.0451,-0.0095 1.7267,-0.0285l0.0227,1.0678l-0.0341,1.3667l0.0227,1.7085l-0.0114,2.449l-0.0227,1.0963l0.0114,0.7403c-0.0303,0.4935 -0.0454,0.7735 -0.0454,0.8399c0,0.2373 0.0341,0.413 0.1022,0.5269c0.0682,0.1139 0.1325,0.1709 0.1931,0.1709l1.0451,-0.0428l0.1363,0.0285c0.0227,0.3327 0.0341,0.5228 0.0341,0.5703c0,0.0665 -0.0114,0.1711 -0.0341,0.3137c-0.4014,0.019 -0.6892,0.0523 -0.8634,0.0998c-0.8104,0.2281 -1.6964,0.5656 -2.6583,1.0123l-0.4544,-0.0285l-0.0114,-2.324c-0.0909,0.0951 -0.2234,0.2424 -0.3976,0.442c-0.6665,0.7414 -1.2383,1.2428 -1.7154,1.5042c-0.4771,0.2614 -0.977,0.3921 -1.4995,0.3921c-0.621,0 -1.1587,-0.1614 -1.6131,-0.4841c-0.4544,-0.3227 -0.7876,-0.7214 -0.9997,-1.1961c-0.159,-0.3703 -0.2651,-0.9019 -0.3181,-1.5949c-0.0151,-0.1803 -0.0227,-1.1105 -0.0227,-2.7907l0.0114,-0.4558c0.0379,-0.9302 0.0568,-1.6183 0.0568,-2.0645c0,-0.7595 -0.0114,-1.2675 -0.0341,-1.5238c-0.0076,-0.1233 -0.0454,-0.2656 -0.1136,-0.4271c-0.106,-0.057 -0.231,-0.0998 -0.3749,-0.1283c-0.4847,-0.1046 -0.7876,-0.2043 -0.9088,-0.2992c-0.0379,-0.0285 -0.0568,-0.0903 -0.0568,-0.1854c0,-0.057 0.0417,-0.4798 0.0568,-0.6984Z" style="fill:#264a4a;fill-rule:nonzero;"/><path d="M214.5406,81.4047l0.2613,0.2139c0.0682,0.0665 0.1098,0.1473 0.125,0.2424l0.0114,0.0713c-0.1818,0.846 -0.4203,1.4282 -0.7157,1.7466c-0.2954,0.3184 -0.6627,0.4776 -1.1019,0.4776c-0.4468,0 -0.8312,-0.1545 -1.1531,-0.4634c-0.3219,-0.3089 -0.6153,-0.8531 -0.8804,-1.6325c-0.3257,0.7224 -0.7838,1.2666 -1.3746,1.6325c-0.5907,0.3659 -1.314,0.5489 -2.1698,0.5489c-0.7876,0 -1.367,-0.2067 -1.7381,-0.6202c-0.3711,-0.4135 -0.5566,-0.9576 -0.5566,-1.6325c0,-0.3137 0.0549,-0.6321 0.1647,-0.9553c0.1098,-0.3232 0.2878,-0.644 0.5339,-0.9624c0.2461,-0.3184 0.6418,-0.6677 1.1871,-1.0479c0.0833,-0.057 0.3711,-0.2186 0.8634,-0.4848l2.8287,-1.4258c0.0227,-0.3612 0.0341,-0.7271 0.0341,-1.0978c0,-1.2832 -0.125,-2.1577 -0.3749,-2.6234c-0.1515,-0.2852 -0.4165,-0.4277 -0.7952,-0.4277c-0.3787,0 -0.727,0.0903 -1.0451,0.2709c-0.3181,0.1806 -0.5491,0.4135 -0.693,0.6986c-0.106,0.2091 -0.1969,0.6036 -0.2726,1.1834c-0.053,0.4182 -0.1022,0.6606 -0.1477,0.7271c-0.1136,0.1806 -0.32,0.3446 -0.6191,0.4919c-0.2992,0.1473 -0.5017,0.2543 -0.6078,0.3208c-0.409,0.2471 -0.7346,0.3707 -0.977,0.3707c-0.106,-0.1141 -0.159,-0.2756 -0.159,-0.4848c0,-0.5418 0.0909,-1.0075 0.2726,-1.3973c0.2726,-0.5513 0.6835,-1.086 1.2326,-1.604c0.5491,-0.518 1.0622,-0.8816 1.5393,-1.0907c0.6513,-0.2661 1.4465,-0.3992 2.3856,-0.3992c0.6059,0 1.1265,0.1402 1.562,0.4206c0.4355,0.2804 0.7384,0.6963 0.9088,1.2476c0.1704,0.5513 0.2556,1.5446 0.2556,2.9799l-0.0341,2.3525l0.0227,1.7252l0,0.442c0,0.3992 0.0435,0.6725 0.1306,0.8198c0.0871,0.1473 0.1988,0.221 0.3351,0.221c0.0833,0 0.1553,-0.0285 0.2158,-0.0855l0.3408,-0.6701l0.2045,-0.0998Zm-3.7261,-3.3078c-0.4317,0.1806 -0.9183,0.4824 -1.4598,0.9054c-0.5415,0.423 -0.9183,0.8483 -1.1303,1.2761c-0.1515,0.3137 -0.2272,0.6986 -0.2272,1.1549c0,0.4087 0.0985,0.7462 0.2954,1.0123c0.1969,0.2661 0.4241,0.3992 0.6816,0.3992c0.4241,0 0.7838,-0.1521 1.0792,-0.4562c0.4014,-0.4087 0.6362,-0.7343 0.7043,-0.9767c0.0682,-0.2424 0.1022,-0.9291 0.1022,-2.0602c0,-0.4182 -0.0151,-0.8365 -0.0454,-1.2547Z" style="fill:#264a4a;fill-rule:nonzero;"/><path d="M215.6198,83.3654c0.0985,-0.108 0.2272,-0.1865 0.3862,-0.2355c0.3862,-0.1044 0.7536,-0.2942 1.1019,-0.5694c0.0682,-0.2277 0.1022,-0.9963 0.1022,-2.3057c0,-2.4008 -0.0417,-4.0235 -0.125,-4.8681c-0.0151,-0.1518 -0.0757,-0.2846 -0.1818,-0.3985c-0.1893,-0.1234 -0.4468,-0.2326 -0.7725,-0.3275c-0.1515,-0.0474 -0.2423,-0.1519 -0.2726,-0.3134l-0.0341,-0.5275c0.5604,-0.0951 1.0679,-0.3351 1.5223,-0.72c0.4544,-0.385 0.7952,-0.777 1.0224,-1.1763c0.1212,-0.2186 0.2272,-0.385 0.3181,-0.499l0.7952,-0.0285c0.0379,0.2186 0.0568,0.3992 0.0568,0.5418c0,0.1046 -0.0038,0.2329 -0.0114,0.385c-0.0076,0.3327 -0.0114,0.6083 -0.0114,0.8269c0,0.1046 0.0038,0.499 0.0114,1.1834c0.3105,-0.6654 0.5377,-1.1121 0.6816,-1.3402c0.0682,-0.1046 0.2689,-0.3374 0.6021,-0.6986c0.2575,-0.2376 0.5491,-0.3564 0.8747,-0.3564c0.4014,0 0.7498,0.1711 1.0451,0.5133c0.2954,0.3422 0.443,0.7367 0.443,1.1834c0,0.4467 -0.1117,0.8483 -0.3351,1.2048c-0.2234,0.3564 -0.5207,0.5347 -0.8918,0.5347c-0.3257,0 -0.6665,-0.1711 -1.0224,-0.5133c-0.2121,-0.2091 -0.3825,-0.3137 -0.5112,-0.3137l-0.0795,0.0143c-0.159,0.0662 -0.3029,0.2462 -0.4317,0.54c-0.2121,0.4736 -0.3181,0.9662 -0.3181,1.4777l0.0227,0.3836c0.0303,0.701 0.053,2.3446 0.0682,4.9307c0.0227,0.2369 0.0947,0.4738 0.2158,0.7107c0.1363,0.1326 0.2745,0.2274 0.4146,0.2843c0.1401,0.0567 0.3844,0.1044 0.7327,0.143c0.3484,0.0385 0.5604,0.0987 0.6362,0.1807c0.0757,0.0818 0.1136,0.2143 0.1136,0.3974c0,0.1059 -0.0227,0.2456 -0.0682,0.419l-1.0679,0l-2.1698,-0.1283c-0.5453,0 -1.0413,0.0285 -1.4882,0.0855l-0.1931,0c-0.053,0 -0.4468,0.0238 -1.1815,0.0713c-0.0227,-0.157 -0.0341,-0.2747 -0.0341,-0.3531c0,-0.0784 0.0114,-0.1911 0.0341,-0.3382Z" style="fill:#264a4a;fill-rule:nonzero;"/><path d="M226.1733,73.1495c0.3711,-0.3232 0.7289,-0.5561 1.0735,-0.6986c0.3446,-0.1426 0.8312,-0.2519 1.4598,-0.3279l0.6362,0c0.8255,0 1.6169,0.3564 2.3743,1.0693l0.0227,-0.3422l-0.0114,-0.9553l0.0454,-1.5256c0,-1.6064 -0.0985,-2.6234 -0.2954,-3.0512c-0.1136,-0.2566 -0.3124,-0.3945 -0.5964,-0.4135c-0.284,-0.019 -0.5131,-0.0808 -0.6873,-0.1854l0,-0.6844c0.1439,-0.057 0.3294,-0.0879 0.5566,-0.0927c0.2272,-0.0048 0.6702,-0.1022 1.3291,-0.2923l0.3862,-0.0998l1.1247,-0.3279c0.2272,-0.0665 0.3673,-0.0998 0.4203,-0.0998c0.0379,0 0.0985,0.0095 0.1818,0.0285c0.0454,0.1996 0.0682,0.3469 0.0682,0.442l-0.0114,0.2139l0,0.2566c0,0.2661 0.0114,0.9743 0.0341,2.1244l0,0.7699l0.0114,0.4135l-0.0114,0.7129l0.0341,1.4828l-0.0227,0.8697c-0.0151,0.3802 -0.0227,0.979 -0.0227,1.7965c0,0.1331 0.0038,0.2519 0.0114,0.3564l0,0.5275c-0.0076,0.1521 -0.0114,0.2661 -0.0114,0.3422c0,0.1426 0.0114,0.3469 0.0341,0.6131l0,0.7842l-0.0114,0.2994c-0.0151,0.2756 -0.0227,0.6559 -0.0227,1.1406c0,0.4943 0.0076,0.941 0.0227,1.3402c0.0076,0.1616 0.0114,0.3089 0.0114,0.442l0,1.0693c0,0.3422 0.0076,0.7509 0.0227,1.2262c0.1363,0.1046 0.4696,0.1806 0.9997,0.2281c0.1666,0.0095 0.3143,0.0333 0.443,0.0713c0.0379,0.1426 0.0568,0.2471 0.0568,0.3137c0,0.0855 -0.0265,0.2139 -0.0795,0.385c-0.3105,0.0951 -0.6362,0.1663 -0.977,0.2139c-1.0376,0.1616 -1.776,0.3897 -2.2152,0.6844c-0.2121,0.1521 -0.3597,0.2281 -0.443,0.2281c-0.0833,0 -0.178,-0.0095 -0.284,-0.0285c0.0076,-0.1724 0.0114,-0.2826 0.0114,-0.3304c0,-0.6513 -0.0114,-1.0678 -0.0341,-1.2498c-0.1136,0.0768 -0.2537,0.1775 -0.4203,0.3021c-0.5074,0.3836 -0.9694,0.6498 -1.3859,0.7984c-0.4165,0.1487 -0.8937,0.223 -1.4314,0.223c-0.9543,0 -1.7154,-0.2281 -2.2834,-0.6844c-0.8406,-0.6654 -1.4219,-1.4638 -1.7438,-2.3953c-0.3219,-0.9315 -0.4828,-1.9533 -0.4828,-3.0654c0,-1.92 0.7043,-3.5597 2.113,-4.9189Zm3.4989,9.4244c0.159,0.019 0.2954,0.0285 0.409,0.0285c0.2499,0 0.5169,-0.0653 0.8009,-0.1958c0.284,-0.1307 0.585,-0.3221 0.9031,-0.5741c0.0076,-0.3137 0.0114,-0.5085 0.0114,-0.5846c0,-3.0131 -0.0341,-4.8286 -0.1022,-5.4465c-0.0909,-0.8269 -0.3408,-1.4638 -0.7498,-1.9105c-0.409,-0.4467 -0.905,-0.6701 -1.4882,-0.6701c-0.3332,0 -0.6494,0.076 -0.9486,0.2279c-0.2992,0.1518 -0.5434,0.37 -0.7327,0.6547c-0.2802,0.4176 -0.4923,0.8921 -0.6362,1.4235c-0.1969,0.7404 -0.2954,1.4332 -0.2954,2.0785c0,1.547 0.2613,2.731 0.7838,3.552c0.5226,0.8209 1.2042,1.293 2.0448,1.4164Z" style="fill:#264a4a;fill-rule:nonzero;"/></g></svg>