<?xml version="1.0" encoding="UTF-8" standalone="no"?><!DOCTYPE svg PUBLIC "-//W3C//DTD SVG 1.1//EN" "http://www.w3.org/Graphics/SVG/1.1/DTD/svg11.dtd"><svg width="100%" height="100%" viewBox="0 0 350 250" version="1.1" xmlns="http://www.w3.org/2000/svg" xmlns:xlink="http://www.w3.org/1999/xlink" xml:space="preserve" xmlns:serif="http://www.serif.com/" style="fill-rule:evenodd;clip-rule:evenodd;stroke-linejoin:round;stroke-miterlimit:2;"><g id="Logo"><path d="M124.9813,69.0285l38.4621,-10.0717l11.7905,0.3473l37.0884,10.0717l-0.1145,27.4366c0,0 -11.4479,39.3533 -41.6105,55.9151c0,0 -35.3137,-16.5076 -44.4713,-54.9818l-1.1447,-28.7172Z" style="fill:#3c3c34;"/><path d="M190.2048,70.6961c0,0 1.7638,20.4687 -6.6141,28.5255c-8.3779,8.0568 -30.5351,26.2698 -30.4248,37.5232l-0.4409,9.7291c0,0 -2.5354,-2.0686 -4.2992,-4.355l0.7716,-8.7101c0,0 3.5275,-13.0533 15.9841,-21.9232c0,0 16.425,-14.7492 18.4092,-18.6687c0,0 7.6062,-16.2604 6.6141,-22.1208Z" style="fill:#264a4a;"/><path d="M158.9289,144.4429c3.4498,2.5344 7.2201,4.7992 11.3298,6.6578l0,-0.1111c32.4996,-19.9021 39.9449,-53 39.9449,-53l0.5556,-27.4551c0.5556,-0.6667 -37,-9.6667 -37,-9.6667l-2.1111,-6.7778c11.7778,-2.9707 45.7778,11.9707 45.7778,11.9707l-1.2222,33.2754c-3.8889,36.6088 -45.9449,60.4444 -45.9449,60.4444c0,0 -46,-23.8357 -49.8889,-60.4444l-1.2222,-33.2754c0,0 34,-14.9413 45.7778,-11.9707l-2.1111,6.7778c0,0 -37.5555,9 -37,9.6667l1.2222,27.6773c0,0 7.5756,25.3888 27.3893,42.6245l0,-0.1209l3.1111,-10.4444c1.6667,-4.5556 28.3333,-30.8889 28.3333,-30.8889c5.4444,-5 6.8889,-19.6667 6.8889,-19.6667c1.4444,4 -0.2222,14.1111 -0.2222,14.1111c-0.6667,8.6667 -24.2502,30.7778 -24.2502,30.7778c-6.9569,5.3635 -8.9416,13.6655 -9.3578,19.8386Z" style="fill:#614338;"/><g id="Cross"><path d="M161.9813,145.1405l0,-6.2222c0,0 4.7769,-10.7778 8.2774,-13.3333l0,25.0313c0,0 -6.8329,-2.3647 -8.2774,-5.4758Z" style="fill:#878786;"/><path d="M164.3146,108.4738l5.944,-5.3333l0,-9.2222l10.1671,-0.8889l3.1111,-4.8889l-13.2782,-0.2222l0,-13.8889l-5.4996,4.2222l0,9.3333l-12.8889,-0.2222l-5.4444,5.5556l18.1111,-0.1111l-0.2222,15.6667Z" style="fill:#878786;"/></g><g id="Fire"><path d="M163.2791,84.8648c-4.5269,-2.0563 -9.7553,-6.9432 -4.608,-18.305c0,0 -0.32,8.2349 2.304,5.3549l7.3116,-23.4669l7.7924,22.2483c0,0 2.048,1.265 2.048,-3.3236c0,0 5.1426,14.4581 -5.8059,18.1234l-0.0181,-14.7998l-9.024,6.1466l0,8.0221Z" style="fill:#ff8100;"/><path d="M168.2867,57.5998c0,0 5.1389,18.2136 7.1697,13.0963c0,0 0.3027,8.5786 -2.5133,8.7066l-0.1755,-9.6965l-8.7205,6.4325c0,0 -3.5562,0.5814 -2.9301,-2.1093c0,0 1.7141,1.5973 2.6741,-1.2827c0.96,-2.88 4.4956,-15.1469 4.4956,-15.1469Z" style="fill:#ffb100;"/></g></g><path d="M65.8325,200.7689l0.0448,-1.6323c0.3282,-0.0755 0.8728,-0.1878 1.6337,-0.3367c0.7609,-0.1492 1.5218,-0.3207 2.2827,-0.5144l0.4252,-0.2682c0.1492,-0.5963 0.2238,-1.2076 0.2238,-1.8337l0,-0.1339l-0.0895,-5.1651l0.0224,-2.1687l-0.0895,-3.1975l0.0448,-3.801l-0.2686,-7.4905c-0.2238,-0.2089 -0.9474,-0.4178 -2.1708,-0.6266c-0.2984,-0.0597 -0.7311,-0.179 -1.298,-0.3581l-0.5371,-0.1343l0,-1.5666l2.9541,0.1119c1.7904,0.179 4.4237,0.2686 7.9,0.2686c1.7456,0 3.5658,-0.0448 5.4606,-0.1343l0.4252,-0.0224l1.0966,0.0224l0.4476,-0.0224l0.9399,0l4.0059,-0.1343c0.179,0 0.414,-0.0149 0.705,-0.0448c0.2909,-0.0298 0.5632,-0.0522 0.8169,-0.0671c0.0895,0.4476 0.1492,0.8952 0.179,1.3428l0.3357,4.2074c0,0.4476 -0.0448,0.7907 -0.1343,1.0295c-0.5371,0.0746 -0.9325,0.1119 -1.1861,0.1119c-0.2984,0 -0.5371,-0.0671 -0.7161,-0.2014c-0.0895,-0.0895 -0.2611,-0.4252 -0.5147,-1.0071c-0.6266,-1.5069 -1.16,-2.3983 -1.6001,-2.6744c-0.4401,-0.276 -1.6673,-0.414 -3.6814,-0.414l-3.0884,0.0895c-1.3129,0.0149 -2.3499,0.0895 -3.1108,0.2238c-0.1641,0.0298 -0.4028,0.1044 -0.7161,0.2238c-0.194,0.3439 -0.2909,0.7849 -0.2909,1.3232l0.0671,2.6691l-0.0671,3.0499c0,1.5551 0.0522,2.5121 0.1567,2.8709c0.1343,0.09 0.2462,0.1426 0.3357,0.1577l1.5889,0.0224l2.6855,0c0.5968,0 1.5144,-0.0746 2.7527,-0.2238c0.8504,-0.1044 1.3726,-0.2238 1.5666,-0.3581c0.3581,-0.2387 0.6154,-0.5408 0.7721,-0.9064c0.1567,-0.3655 0.2723,-1.257 0.3469,-2.6744c0.0746,0 0.9549,-0.0448 1.0295,-0.0448c0.1641,0 0.4924,0.0224 0.9847,0.0671l-0.1343,3.5807c-0.0149,0.7609 -0.0448,1.4174 -0.0895,1.9694l0.0448,0.4924c0.0149,0.1492 0.0224,1.2533 0.0224,3.3122c0,0.1343 -0.0075,0.3581 -0.0224,0.6714c-0.2835,0.0597 -0.5073,0.0895 -0.6714,0.0895c-0.1194,0 -0.4103,-0.0448 -0.8728,-0.1343c-0.1343,-0.2835 -0.2835,-0.6938 -0.4476,-1.2309c-0.3432,-1.1787 -0.7161,-1.865 -1.119,-2.0589c-0.7161,-0.3581 -2.969,-0.5371 -6.7586,-0.5371c-0.552,0 -1.1936,0.0522 -1.9246,0.1567c-0.1044,0.6266 -0.1567,1.3502 -0.1567,2.1708l0.1119,6.7139c0.0149,1.2383 0.1492,1.9992 0.4028,2.2827c0.1641,0.179 0.7236,0.3581 1.6785,0.5371l0.4476,0.0448c0.6714,0.0448 1.2607,0.1417 1.768,0.2909l0.6042,0.136c0.0597,0.3923 0.0895,0.6942 0.0895,0.9057c0,0.2264 -0.0224,0.5132 -0.0671,0.8606l-0.4252,-0.0227l-0.6938,0.0227l-3.1779,-0.1762c-0.3581,-0.0168 -2.0291,-0.0252 -5.013,-0.0252c-0.8206,0 -1.6039,0.0448 -2.3499,0.1343c-1.1787,0.1343 -1.8202,0.2014 -1.9246,0.2014c-0.9698,0 -1.6337,-0.0075 -1.9918,-0.0224Z" style="fill:#c79f5a;fill-rule:nonzero;"/><path d="M111.6659,196.4273l0.5147,0.3357c0.1343,0.1044 0.2163,0.2313 0.2462,0.3805l0.0224,0.1119c-0.3581,1.3279 -0.828,2.2417 -1.4099,2.7415c-0.5819,0.4998 -1.3055,0.7497 -2.1708,0.7497c-0.8803,0 -1.6374,-0.2424 -2.2715,-0.7273c-0.6341,-0.4849 -1.2122,-1.339 -1.7344,-2.5625c-0.6415,1.1339 -1.5442,1.9881 -2.7079,2.5625c-1.1637,0.5744 -2.5886,0.8616 -4.2745,0.8616c-1.5516,0 -2.693,-0.3245 -3.4241,-0.9735c-0.7311,-0.649 -1.0966,-1.5032 -1.0966,-2.5625c0,-0.4924 0.1082,-0.9922 0.3245,-1.4994c0.2163,-0.5073 0.5669,-1.0108 1.0518,-1.5106c0.4849,-0.4998 1.2644,-1.0481 2.3387,-1.6449c0.1641,-0.0895 0.7311,-0.3432 1.7008,-0.7609l5.5725,-2.238c0.0448,-0.5669 0.0671,-1.1414 0.0671,-1.7232c0,-2.0142 -0.2462,-3.3868 -0.7385,-4.1178c-0.2984,-0.4476 -0.8206,-0.6714 -1.5666,-0.6714c-0.746,0 -1.4323,0.1417 -2.0589,0.4252c-0.6266,0.2835 -1.0817,0.649 -1.3652,1.0966c-0.2089,0.3282 -0.3879,0.9474 -0.5371,1.8575c-0.1044,0.6565 -0.2014,1.0369 -0.2909,1.1414c-0.2238,0.2835 -0.6304,0.5408 -1.2197,0.7721c-0.5893,0.2313 -0.9884,0.3991 -1.1973,0.5035c-0.8057,0.3879 -1.4472,0.5819 -1.9246,0.5819c-0.2089,-0.179 -0.3133,-0.4327 -0.3133,-0.7609c0,-0.8504 0.179,-1.5815 0.5371,-2.1932c0.5371,-0.8653 1.3465,-1.7046 2.4282,-2.5177c1.0817,-0.8131 2.0925,-1.3838 3.0324,-1.712c1.2831,-0.4178 2.8497,-0.6266 4.6997,-0.6266c1.1936,0 2.2193,0.2201 3.0772,0.6602c0.8579,0.4401 1.4547,1.0929 1.7904,1.9582c0.3357,0.8653 0.5035,2.4245 0.5035,4.6773l-0.0671,3.6926l0.0448,2.7079l0,0.6938c0,0.6266 0.0858,1.0556 0.2574,1.2868c0.1716,0.2313 0.3916,0.3469 0.6602,0.3469c0.1641,0 0.3059,-0.0448 0.4252,-0.1343l0.6714,-1.0518l0.4028,-0.1567Zm-7.3405,-5.1921c-0.8504,0.2835 -1.809,0.7572 -2.8758,1.4211c-1.0668,0.6639 -1.809,1.3316 -2.2268,2.003c-0.2984,0.4924 -0.4476,1.0966 -0.4476,1.8127c0,0.6415 0.194,1.1712 0.5819,1.5889c0.3879,0.4178 0.8355,0.6266 1.3428,0.6266c0.8355,0 1.5442,-0.2387 2.1261,-0.7161c0.7907,-0.6415 1.2533,-1.1525 1.3875,-1.533c0.1343,-0.3805 0.2014,-1.4584 0.2014,-3.2338c0,-0.6565 -0.0298,-1.3129 -0.0895,-1.9694Z" style="fill:#c79f5a;fill-rule:nonzero;"/><path d="M116.7684,173.9358c0,-0.8057 0.2611,-1.4659 0.7833,-1.9806c0.5222,-0.5147 1.1936,-0.7721 2.0142,-0.7721c0.8803,0 1.6113,0.2723 2.1932,0.8169c0.5819,0.5446 0.8728,1.16 0.8728,1.8463c0,0.5073 -0.1156,1.0145 -0.3469,1.5218c-0.2313,0.5073 -0.5968,0.9138 -1.0966,1.2197c-0.4998,0.3059 -1.0108,0.4588 -1.533,0.4588c-0.7161,0 -1.3763,-0.3059 -1.9806,-0.9176c-0.6042,-0.6117 -0.9064,-1.3428 -0.9064,-2.1932Zm-3.1331,26.6988l-0.0448,-1.4547l2.5289,-0.3357c0.373,-0.1044 0.6304,-0.2574 0.7721,-0.4588c0.1417,-0.2014 0.2126,-0.6527 0.2126,-1.354l0,-0.2462c0,-0.179 0.0112,-0.5035 0.0336,-0.9735c0.0224,-0.47 0.0336,-0.884 0.0336,-1.2421c0,-0.2835 -0.0224,-0.828 -0.0671,-1.6337l0.0224,-1.119l-0.0224,-1.0518l0.0448,-3.6479c0,-0.4625 -0.0448,-0.9399 -0.1343,-1.4323c-0.1641,-0.2238 -0.4625,-0.4178 -0.8952,-0.5819c-0.4327,-0.1641 -1.1861,-0.2835 -2.2603,-0.3581l0,-1.2533c1.5367,-0.0895 2.887,-0.4103 4.0507,-0.9623c0.7907,-0.3581 1.6486,-0.9922 2.5736,-1.9023l1.4994,0c0.0597,1.85 0.0895,4.2521 0.0895,7.2062l-0.1567,9.1309c0,0.6266 0.0298,1.1936 0.0895,1.7008c0.4625,0.1641 1.216,0.3282 2.2603,0.4924c0.4028,0.0597 0.7236,0.1343 0.9623,0.2238l-0.0224,1.2309c-0.4028,0.0149 -0.7012,0.0224 -0.8952,0.0224c-0.2238,0 -0.5669,-0.0149 -1.0295,-0.0448c-1.5218,-0.0746 -3.5583,-0.1119 -6.1096,-0.1119c-0.7311,0 -1.4398,0.0261 -2.1261,0.0783c-0.6863,0.0522 -1.1563,0.0783 -1.4099,0.0783Z" style="fill:#c79f5a;fill-rule:nonzero;"/><path d="M127.1301,183.6629c1.7605,-0.7448 3.0324,-1.4748 3.8157,-2.19c0.7833,-0.7152 1.6225,-1.8773 2.5177,-3.4863l1.2533,0c0.1343,0.3879 0.2014,0.7982 0.2014,1.2309c0,0.7758 -0.0075,1.3801 -0.0224,1.8127l-0.0671,1.3204c0,0.0746 0.0075,0.2462 0.0224,0.5147l0.5147,0.0224c0.0746,0 0.7758,-0.0298 2.1037,-0.0895c0.1044,0 0.6639,-0.0149 1.6785,-0.0448c0.0895,0.3989 0.1343,0.7534 0.1343,1.0637c0,0.3399 -0.0522,0.7389 -0.1567,1.197c-0.4924,0.0893 -0.8653,0.1339 -1.119,0.1339c-0.1194,0 -0.3581,-0.0298 -0.7161,-0.0895l-1.1637,0l-0.4028,-0.022l-1.0742,0.0668l-0.0448,8.5493c-0.0149,1.6561 0.0186,2.6893 0.1007,3.0996c0.0821,0.4103 0.2574,0.8019 0.5259,1.1749c0.3432,0.1639 0.7236,0.2458 1.1414,0.2458c0.4028,0 0.7012,-0.0372 0.8952,-0.1115c0.194,-0.0746 0.5222,-0.2906 0.9847,-0.648c0.0895,-0.0746 0.2313,-0.1789 0.4252,-0.313c0.3581,0.283 0.649,0.566 0.8728,0.849l0.0895,0.2682c-0.5222,0.8206 -1.257,1.4659 -2.2044,1.9358c-0.9474,0.47 -1.9582,0.705 -3.0324,0.705c-1.3875,0 -2.514,-0.4394 -3.3793,-1.3183c-0.8653,-0.8791 -1.298,-2.2424 -1.298,-4.0899l0.0895,-3.9332l0,-6.3691l-0.6938,-0.0448l-1.6113,0.0448l-0.2909,-0.1115c-0.0895,-0.1329 -0.1343,-0.2584 -0.1343,-0.3766c0,-0.0886 0.0149,-0.4209 0.0448,-0.9969Z" style="fill:#c79f5a;fill-rule:nonzero;"/><path d="M140.9831,199.2247c0.2387,-0.0597 0.9026,-0.1492 1.9918,-0.2686c0.4774,-0.0597 0.7758,-0.1641 0.8952,-0.3133c0.1492,-0.2238 0.2238,-0.7534 0.2238,-1.5889l0,-1.5889l0.0671,-1.6785l0,-1.8351l0.0224,-0.4476l-0.0224,-1.119l0.0448,-0.3805l0.0895,-8.1238l0,-0.6266c0,-2.7751 -0.0746,-4.4908 -0.2238,-5.1473c-0.0895,-0.3879 -0.3021,-0.6938 -0.6378,-0.9176c-0.3357,-0.2238 -1.1227,-0.4327 -2.361,-0.6266l0,-0.47c0,-0.2238 0.0149,-0.4998 0.0448,-0.828l1.8799,-0.4028c0.373,-0.1044 0.7311,-0.194 1.0742,-0.2686c0.8355,-0.179 1.8873,-0.552 3.1555,-1.119c0.2238,-0.1343 0.4327,-0.2462 0.6266,-0.3357l1.2085,0.0895l-0.0448,13.383c1.3577,-1.0742 2.596,-1.8351 3.715,-2.2827c1.119,-0.4476 2.2827,-0.6714 3.4912,-0.6714c1.1488,0 2.1447,0.2051 2.9877,0.6154c0.843,0.4103 1.4957,0.9176 1.9582,1.5218c0.4625,0.6042 0.7907,1.339 0.9847,2.2044c0.1343,0.5819 0.2014,1.7008 0.2014,3.3569l0,1.4323l0.0224,3.1555l-0.1119,4.5654c0.0597,0.1343 0.1268,0.2238 0.2014,0.2686c0.179,0.0746 0.6192,0.179 1.3204,0.3133c0.4028,0.0746 0.7161,0.1417 0.9399,0.2014c0.1194,0.2222 0.179,0.3998 0.179,0.5329l-0.0224,0.1776c-0.0298,0.163 -0.0448,0.4073 -0.0448,0.7329l-0.5147,0.0336c-0.2238,0 -0.6639,-0.0298 -1.3204,-0.0895c-1.2533,-0.1194 -2.3051,-0.179 -3.1555,-0.179c-0.552,0 -1.2906,0.0298 -2.2156,0.0895c-0.6565,0.0298 -1.492,0.0448 -2.5065,0.0448c-0.1641,0 -0.3133,-0.0224 -0.4476,-0.0671l0,-0.5371l-0.0448,-0.2909c0,-0.1194 0.0373,-0.2835 0.1119,-0.4924c0.3432,-0.1641 0.7423,-0.2723 1.1973,-0.3245c0.4551,-0.0522 0.884,-0.1082 1.2868,-0.1678c0.0597,-0.2835 0.097,-0.4625 0.1119,-0.5371l0.1119,-3.2674l0,-5.483c0,-1.6262 -0.0895,-2.7266 -0.2686,-3.301c-0.179,-0.5744 -0.552,-1.0444 -1.119,-1.4099c-0.5669,-0.3655 -1.2533,-0.5483 -2.0589,-0.5483c-0.9399,0 -1.8538,0.2201 -2.7415,0.6602c-0.8877,0.4401 -1.6449,0.9586 -2.2715,1.5554l0,3.9164c0,2.1484 -0.0224,3.7598 -0.0671,4.834c-0.0298,0.6415 -0.0448,1.0444 -0.0448,1.2085c0,1.0295 0.0671,1.7381 0.2014,2.1261c0.0597,0.179 0.2238,0.3432 0.4924,0.4924c0.552,0.0448 1.0108,0.0709 1.3763,0.0783c0.3655,0.0075 0.6602,0.041 0.884,0.1007c0.0298,0.3676 0.0448,0.625 0.0448,0.7721c0,0.2058 -0.0298,0.4558 -0.0895,0.7497l-2.4841,-0.1007c-0.9399,-0.0671 -1.7829,-0.1007 -2.5289,-0.1007l-3.1331,0.1567l-2.1932,-0.0224c-0.1492,-0.2089 -0.3059,-0.5819 -0.47,-1.119l0,-0.2909Z" style="fill:#c79f5a;fill-rule:nonzero;"/><path d="M191.7623,173.8015c0.1044,0.4327 0.2238,1.2868 0.3581,2.5625c0.1343,1.2756 0.2014,2.2044 0.2014,2.7863c0,0.2238 -0.0522,0.4998 -0.1567,0.828c-0.6415,-0.0149 -1.1861,-0.0746 -1.6337,-0.179c-1.1339,-1.7456 -1.9321,-2.8422 -2.3946,-3.2898c-0.8653,-0.8355 -1.9769,-1.5442 -3.3346,-2.1261c-0.9996,-0.4327 -2.1484,-0.649 -3.4465,-0.649c-2.4916,0 -4.6848,1.118 -6.5796,3.3541c-1.8948,2.2359 -2.8422,5.56 -2.8422,9.9725c0,2.072 0.3693,4.0844 1.1078,6.0372c0.7385,1.9526 1.8463,3.4842 3.3234,4.5948c1.4771,1.1106 3.2152,1.6659 5.2144,1.6659c0.9698,0 1.9992,-0.1262 3.0884,-0.3787c0.552,-0.1189 0.9996,-0.3566 1.3428,-0.713c0.2387,-0.2378 0.3954,-0.5943 0.47,-1.0697c0.1194,-0.8616 0.179,-2.0872 0.179,-3.6769c0,-1.5449 -0.0224,-2.607 -0.0671,-3.1863c-0.1044,-0.2229 -0.2051,-0.3676 -0.3021,-0.4343c-0.097,-0.0669 -0.3991,-0.1747 -0.9064,-0.3235l-1.9918,-0.5347c-0.4327,-0.1044 -0.7012,-0.2313 -0.8057,-0.3805c-0.0298,-0.194 -0.0448,-0.3357 -0.0448,-0.4252c0,-0.2089 0.0522,-0.4998 0.1567,-0.8728c0.2686,-0.0895 0.4551,-0.1343 0.5595,-0.1343c1.6262,0 3.0362,0.0537 4.2297,0.1612c0.4178,0.0268 0.8728,0.0402 1.3652,0.0402l3.536,-0.0448l1.4994,-0.0448c0.179,-0.0149 0.6788,0 1.4994,0.0448c0.0149,0.3879 0.0224,0.7161 0.0224,0.9847c0,0.1641 -0.0522,0.3506 -0.1567,0.5595c-0.2536,0.152 -0.6863,0.342 -1.298,0.57c-0.6117,0.2278 -0.9549,0.3796 -1.0295,0.4556c-0.1194,0.1191 -0.2014,0.3054 -0.2462,0.5588c-0.0448,0.2532 -0.0671,1.1394 -0.0671,2.6586c0,1.7577 -0.0075,2.8079 -0.0224,3.1506c-0.0597,1.1022 -0.0895,1.7278 -0.0895,1.8767c0,0.5511 -0.0746,0.8937 -0.2238,1.0277c-0.4178,0.4171 -1.712,0.8901 -3.8829,1.419c-2.1708,0.5287 -4.696,0.7931 -7.5755,0.7931c-2.0142,0 -3.7635,-0.1604 -5.248,-0.4812c-1.4845,-0.3208 -2.749,-0.7945 -3.7933,-1.4211c-1.4025,-0.8355 -2.6035,-1.85 -3.6031,-3.0436c-0.9996,-1.1936 -1.7456,-2.4841 -2.238,-3.8717c-0.6863,-1.9694 -1.0295,-3.9313 -1.0295,-5.8858c0,-2.1932 0.5073,-4.4162 1.5218,-6.6691c0.746,-1.6262 1.7941,-3.0921 3.1443,-4.3976c1.3502,-1.3055 3.0399,-2.3461 5.069,-3.1219c2.0291,-0.7758 4.2372,-1.1637 6.6243,-1.1637c0.2984,0 0.7833,0.0373 1.4547,0.1119c1.8202,0 3.5211,0.2275 5.1025,0.6826c1.5815,0.4551 2.8944,0.9959 3.9388,1.6225Z" style="fill:#264a4a;fill-rule:nonzero;"/><path d="M197.2677,182.7981c0.1641,-0.0597 0.2984,-0.1044 0.4028,-0.1343l6.6691,0l0.4924,0.0448l0.0224,1.4973l-0.0448,2.19l0.0224,1.14l-0.0224,3.3744l0,2.3019c0,1.5048 0.0821,2.6893 0.2462,3.5535c0.2238,0.6555 0.5856,1.1509 1.0854,1.4861c0.4998,0.3352 1.1078,0.5028 1.8239,0.5028c0.6714,0 1.216,-0.067 1.6337,-0.2011c0.4178,-0.134 0.8989,-0.3873 1.4435,-0.7599c0.5446,-0.3725 0.8915,-0.6407 1.0406,-0.8046c0.4327,-0.4767 0.7311,-0.9163 0.8952,-1.3186l0.1567,-5.5634c0.0298,-0.5809 0.0448,-1.0577 0.0448,-1.4302c0,-0.3872 -0.0112,-0.875 -0.0336,-1.4634c-0.0224,-0.5884 -0.0336,-0.9198 -0.0336,-0.9941l0.0224,-0.8266l-0.0448,-0.4917c-0.3581,-0.2233 -0.8579,-0.3648 -1.4994,-0.4245l-1.4994,-0.1119c-0.0895,-0.0448 -0.1716,-0.097 -0.2462,-0.1567c-0.0597,-0.2984 -0.0895,-0.5222 -0.0895,-0.6714c0,-0.179 0.0224,-0.4327 0.0671,-0.7609c0.4924,-0.0746 0.9176,-0.1119 1.2756,-0.1119l3.4465,0.0448c0.925,0 2.0589,-0.0149 3.4017,-0.0448l0.0448,1.676l-0.0671,2.1453l0.0448,2.6817l-0.0224,3.844l-0.0448,1.7208l0.0224,1.162c-0.0597,0.7747 -0.0895,1.2141 -0.0895,1.3183c0,0.3725 0.0671,0.6482 0.2014,0.827c0.1343,0.1788 0.2611,0.2682 0.3805,0.2682l2.0589,-0.0671l0.2686,0.0448c0.0448,0.5222 0.0671,0.8206 0.0671,0.8952c0,0.1044 -0.0224,0.2686 -0.0671,0.4924c-0.7907,0.0298 -1.3577,0.0821 -1.7008,0.1567c-1.5964,0.3581 -3.342,0.8877 -5.2368,1.5889l-0.8952,-0.0448l-0.0224,-3.6479c-0.179,0.1492 -0.4401,0.3805 -0.7833,0.6938c-1.3129,1.1637 -2.4394,1.9508 -3.3793,2.361c-0.9399,0.4103 -1.9246,0.6154 -2.9541,0.6154c-1.2234,0 -2.2827,-0.2533 -3.1779,-0.7599c-0.8952,-0.5066 -1.5516,-1.1324 -1.9694,-1.8774c-0.3133,-0.5812 -0.5222,-1.4156 -0.6266,-2.5034c-0.0298,-0.283 -0.0448,-1.7432 -0.0448,-4.3804l0.0224,-0.7154c0.0746,-1.46 0.1119,-2.5402 0.1119,-3.2405c0,-1.1922 -0.0224,-1.9894 -0.0671,-2.3918c-0.0149,-0.1935 -0.0895,-0.4169 -0.2238,-0.6703c-0.2089,-0.0895 -0.4551,-0.1567 -0.7385,-0.2014c-0.9549,-0.1641 -1.5516,-0.3207 -1.7904,-0.4696c-0.0746,-0.0448 -0.1119,-0.1417 -0.1119,-0.2909c0,-0.0895 0.0821,-0.7531 0.1119,-1.0962Z" style="fill:#264a4a;fill-rule:nonzero;"/><path d="M242.2282,196.6958l0.5147,0.3357c0.1343,0.1044 0.2163,0.2313 0.2462,0.3805l0.0224,0.1119c-0.3581,1.3279 -0.828,2.2417 -1.4099,2.7415c-0.5819,0.4998 -1.3055,0.7497 -2.1708,0.7497c-0.8803,0 -1.6374,-0.2424 -2.2715,-0.7273c-0.6341,-0.4849 -1.2122,-1.339 -1.7344,-2.5625c-0.6415,1.1339 -1.5442,1.9881 -2.7079,2.5625c-1.1637,0.5744 -2.5886,0.8616 -4.2745,0.8616c-1.5516,0 -2.693,-0.3245 -3.4241,-0.9735c-0.7311,-0.649 -1.0966,-1.5032 -1.0966,-2.5625c0,-0.4924 0.1082,-0.9922 0.3245,-1.4994c0.2163,-0.5073 0.5669,-1.0108 1.0518,-1.5106c0.4849,-0.4998 1.2644,-1.0481 2.3387,-1.6449c0.1641,-0.0895 0.7311,-0.3432 1.7008,-0.7609l5.5725,-2.238c0.0448,-0.5669 0.0671,-1.1414 0.0671,-1.7232c0,-2.0142 -0.2462,-3.3868 -0.7385,-4.1178c-0.2984,-0.4476 -0.8206,-0.6714 -1.5666,-0.6714c-0.746,0 -1.4323,0.1417 -2.0589,0.4252c-0.6266,0.2835 -1.0817,0.649 -1.3652,1.0966c-0.2089,0.3282 -0.3879,0.9474 -0.5371,1.8575c-0.1044,0.6565 -0.2014,1.0369 -0.2909,1.1414c-0.2238,0.2835 -0.6304,0.5408 -1.2197,0.7721c-0.5893,0.2313 -0.9884,0.3991 -1.1973,0.5035c-0.8057,0.3879 -1.4472,0.5819 -1.9246,0.5819c-0.2089,-0.179 -0.3133,-0.4327 -0.3133,-0.7609c0,-0.8504 0.179,-1.5815 0.5371,-2.1932c0.5371,-0.8653 1.3465,-1.7046 2.4282,-2.5177c1.0817,-0.8131 2.0925,-1.3838 3.0324,-1.712c1.2831,-0.4178 2.8497,-0.6266 4.6997,-0.6266c1.1936,0 2.2193,0.2201 3.0772,0.6602c0.8579,0.4401 1.4547,1.0929 1.7904,1.9582c0.3357,0.8653 0.5035,2.4245 0.5035,4.6773l-0.0671,3.6926l0.0448,2.7079l0,0.6938c0,0.6266 0.0858,1.0556 0.2574,1.2868c0.1716,0.2313 0.3916,0.3469 0.6602,0.3469c0.1641,0 0.3059,-0.0448 0.4252,-0.1343l0.6714,-1.0518l0.4028,-0.1567Zm-7.3405,-5.1921c-0.8504,0.2835 -1.809,0.7572 -2.8758,1.4211c-1.0668,0.6639 -1.809,1.3316 -2.2268,2.003c-0.2984,0.4924 -0.4476,1.0966 -0.4476,1.8127c0,0.6415 0.194,1.1712 0.5819,1.5889c0.3879,0.4178 0.8355,0.6266 1.3428,0.6266c0.8355,0 1.5442,-0.2387 2.1261,-0.7161c0.7907,-0.6415 1.2533,-1.1525 1.3875,-1.533c0.1343,-0.3805 0.2014,-1.4584 0.2014,-3.2338c0,-0.6565 -0.0298,-1.3129 -0.0895,-1.9694Z" style="fill:#264a4a;fill-rule:nonzero;"/><path d="M244.3542,199.7734c0.194,-0.1695 0.4476,-0.2927 0.7609,-0.3696c0.7609,-0.1639 1.4845,-0.4618 2.1708,-0.8938c0.1343,-0.3574 0.2014,-1.5638 0.2014,-3.6192c0,-3.7684 -0.0821,-6.3155 -0.2462,-7.6412c-0.0298,-0.2382 -0.1492,-0.4468 -0.3581,-0.6256c-0.373,-0.1937 -0.8803,-0.3651 -1.5218,-0.514c-0.2984,-0.0744 -0.4774,-0.2384 -0.5371,-0.492l-0.0671,-0.828c1.1041,-0.1492 2.1037,-0.5259 2.9989,-1.1302c0.8952,-0.6042 1.5666,-1.2197 2.0142,-1.8463c0.2387,-0.3432 0.4476,-0.6042 0.6266,-0.7833l1.5666,-0.0448c0.0746,0.3432 0.1119,0.6266 0.1119,0.8504c0,0.1641 -0.0075,0.3655 -0.0224,0.6042c-0.0149,0.5222 -0.0224,0.9549 -0.0224,1.298c0,0.1641 0.0075,0.7833 0.0224,1.8575c0.6117,-1.0444 1.0593,-1.7456 1.3428,-2.1037c0.1343,-0.1641 0.5296,-0.5296 1.1861,-1.0966c0.5073,-0.373 1.0817,-0.5595 1.7232,-0.5595c0.7907,0 1.4771,0.2686 2.0589,0.8057c0.5819,0.5371 0.8728,1.1563 0.8728,1.8575c0,0.7012 -0.2201,1.3316 -0.6602,1.8911c-0.4401,0.5595 -1.0257,0.8392 -1.7568,0.8392c-0.6415,0 -1.3129,-0.2686 -2.0142,-0.8057c-0.4178,-0.3282 -0.7534,-0.4924 -1.0071,-0.4924l-0.1567,0.0224c-0.3133,0.104 -0.5968,0.3865 -0.8504,0.8476c-0.4178,0.7434 -0.6266,1.5166 -0.6266,2.3194l0.0448,0.6021c0.0597,1.1003 0.1044,3.6802 0.1343,7.7395c0.0448,0.3718 0.1865,0.7437 0.4252,1.1155c0.2686,0.2082 0.5408,0.3569 0.8169,0.4462c0.276,0.0891 0.7572,0.1639 1.4435,0.2245c0.6863,0.0604 1.1041,0.1549 1.2533,0.2836c0.1492,0.1284 0.2238,0.3364 0.2238,0.6238c0,0.1662 -0.0448,0.3855 -0.1343,0.6577l-2.1037,0l-4.2745,-0.2014c-1.0742,0 -2.0515,0.0448 -2.9317,0.1343l-0.3805,0c-0.1044,0 -0.8803,0.0373 -2.3275,0.1119c-0.0448,-0.2464 -0.0671,-0.4312 -0.0671,-0.5542c0,-0.1231 0.0224,-0.3 0.0671,-0.5308Z" style="fill:#264a4a;fill-rule:nonzero;"/><path d="M265.1449,183.7381c0.7311,-0.5073 1.436,-0.8728 2.1149,-1.0966c0.6788,-0.2238 1.6374,-0.3954 2.8758,-0.5147l1.2533,0c1.6262,0 3.1854,0.5595 4.6773,1.6785l0.0448,-0.5371l-0.0224,-1.4994l0.0895,-2.3946c0,-2.5214 -0.194,-4.1178 -0.5819,-4.7892c-0.2238,-0.4028 -0.6154,-0.6192 -1.1749,-0.649c-0.5595,-0.0298 -1.0108,-0.1268 -1.354,-0.2909l0,-1.0742c0.2835,-0.0895 0.649,-0.138 1.0966,-0.1455c0.4476,-0.0075 1.3204,-0.1604 2.6184,-0.4588l0.7609,-0.1567l2.2156,-0.5147c0.4476,-0.1044 0.7236,-0.1567 0.828,-0.1567c0.0746,0 0.194,0.0149 0.3581,0.0448c0.0895,0.3133 0.1343,0.5446 0.1343,0.6938l-0.0224,0.3357l0,0.4028c0,0.4178 0.0224,1.5293 0.0671,3.3346l0,1.2085l0.0224,0.649l-0.0224,1.119l0.0671,2.3275l-0.0448,1.3652c-0.0298,0.5968 -0.0448,1.5367 -0.0448,2.8198c0,0.2089 0.0075,0.3954 0.0224,0.5595l0,0.828c-0.0149,0.2387 -0.0224,0.4178 -0.0224,0.5371c0,0.2238 0.0224,0.5446 0.0671,0.9623l0,1.2309l-0.0224,0.47c-0.0298,0.4327 -0.0448,1.0295 -0.0448,1.7904c0,0.7758 0.0149,1.4771 0.0448,2.1037c0.0149,0.2536 0.0224,0.4849 0.0224,0.6938l0,1.6785c0,0.5371 0.0149,1.1787 0.0448,1.9246c0.2686,0.1641 0.925,0.2835 1.9694,0.3581c0.3282,0.0149 0.6192,0.0522 0.8728,0.1119c0.0746,0.2238 0.1119,0.3879 0.1119,0.4924c0,0.1343 -0.0522,0.3357 -0.1567,0.6042c-0.6117,0.1492 -1.2533,0.2611 -1.9246,0.3357c-2.044,0.2536 -3.4987,0.6117 -4.364,1.0742c-0.4178,0.2387 -0.7087,0.3581 -0.8728,0.3581c-0.1641,0 -0.3506,-0.0149 -0.5595,-0.0448c0.0149,-0.2707 0.0224,-0.4435 0.0224,-0.5186c0,-1.0222 -0.0224,-1.6761 -0.0671,-1.9617c-0.2238,0.1205 -0.4998,0.2786 -0.828,0.4742c-0.9996,0.6021 -1.9097,1.0199 -2.7303,1.2533c-0.8206,0.2334 -1.7605,0.35 -2.8198,0.35c-1.8799,0 -3.3793,-0.3581 -4.4983,-1.0742c-1.6561,-1.0444 -2.8012,-2.2976 -3.4353,-3.7598c-0.6341,-1.4621 -0.9511,-3.066 -0.9511,-4.8116c0,-3.0138 1.3875,-5.5874 4.1626,-7.7209Zm6.8929,14.7929c0.3133,0.0298 0.5819,0.0448 0.8057,0.0448c0.4924,0 1.0183,-0.1025 1.5778,-0.3074c0.5595,-0.2051 1.1525,-0.5055 1.7792,-0.9011c0.0149,-0.4924 0.0224,-0.7982 0.0224,-0.9176c0,-4.7295 -0.0671,-7.5792 -0.2014,-8.549c-0.179,-1.298 -0.6714,-2.2976 -1.4771,-2.9989c-0.8057,-0.7012 -1.7829,-1.0518 -2.9317,-1.0518c-0.6565,0 -1.2794,0.1192 -1.8687,0.3577c-0.5893,0.2382 -1.0705,0.5808 -1.4435,1.0277c-0.552,0.6555 -0.9698,1.4004 -1.2533,2.2345c-0.3879,1.1621 -0.5819,2.2496 -0.5819,3.2625c0,2.4282 0.5147,4.2866 1.5442,5.5753c1.0295,1.2885 2.3722,2.0295 4.0283,2.2233Z" style="fill:#264a4a;fill-rule:nonzero;"/></svg>