<?xml version="1.0" encoding="UTF-8" standalone="no"?><!DOCTYPE svg PUBLIC "-//W3C//DTD SVG 1.1//EN" "http://www.w3.org/Graphics/SVG/1.1/DTD/svg11.dtd"><svg width="100%" height="100%" viewBox="0 0 300 32" version="1.1" xmlns="http://www.w3.org/2000/svg" xmlns:xlink="http://www.w3.org/1999/xlink" xml:space="preserve" xmlns:serif="http://www.serif.com/" style="fill-rule:evenodd;clip-rule:evenodd;stroke-linejoin:round;stroke-miterlimit:2;"><g id="Title"><path d="M13.1511,32.4207l0.0385,-1.7627c0.2824,-0.0816 0.751,-0.2028 1.4056,-0.3636c0.6547,-0.1611 1.3094,-0.3463 1.964,-0.5555l0.3659,-0.2896c0.1284,-0.6439 0.1926,-1.304 0.1926,-1.9802l0,-0.1446l-0.077,-5.5776l0.0193,-2.3419l-0.077,-3.4528l0.0385,-4.1046l-0.2311,-8.0887c-0.1926,-0.2256 -0.8151,-0.4511 -1.8678,-0.6767c-0.2567,-0.0644 -0.629,-0.1933 -1.1168,-0.3867l-0.4621,-0.145l0,-1.6917l2.5417,0.1208c1.5404,0.1933 3.8061,0.29 6.7971,0.29c1.5019,0 3.068,-0.0483 4.6983,-0.145l0.3659,-0.0242l0.9435,0.0242l0.3851,-0.0242l0.8087,0l3.4467,-0.145c0.154,0 0.3562,-0.0161 0.6065,-0.0483c0.2503,-0.0322 0.4846,-0.0564 0.7028,-0.0725c0.077,0.4833 0.1284,0.9667 0.154,1.45l0.2888,4.5434c0,0.4833 -0.0385,0.8539 -0.1155,1.1117c-0.4621,0.0806 -0.8023,0.1208 -1.0205,0.1208c-0.2567,0 -0.4621,-0.0725 -0.6162,-0.2175c-0.077,-0.0967 -0.2246,-0.4592 -0.4429,-1.0875c-0.5392,-1.6272 -0.9981,-2.5899 -1.3768,-2.8879c-0.3787,-0.2981 -1.4345,-0.4471 -3.1675,-0.4471l-2.6572,0.0967c-1.1296,0.0161 -2.0218,0.0967 -2.6765,0.2417c-0.1412,0.0322 -0.3466,0.1128 -0.6162,0.2417c-0.1669,0.3713 -0.2503,0.8476 -0.2503,1.4289l0.0578,2.8823l-0.0578,3.2935c0,1.6793 0.0449,2.7127 0.1348,3.1002c0.1155,0.0972 0.2118,0.1539 0.2888,0.1703l1.3671,0.0242l2.3106,0c0.5135,0 1.3029,-0.0806 2.3684,-0.2417c0.7317,-0.1128 1.181,-0.2417 1.3479,-0.3867c0.3081,-0.2578 0.5295,-0.584 0.6643,-0.9788c0.1348,-0.3947 0.2343,-1.3574 0.2985,-2.8879c0.0642,0 0.8216,-0.0483 0.8857,-0.0483c0.1412,0 0.4236,0.0242 0.8472,0.0725l-0.1155,3.8667c-0.0128,0.8217 -0.0385,1.5306 -0.077,2.1267l0.0385,0.5317c0.0128,0.1611 0.0193,1.3533 0.0193,3.5767c0,0.145 -0.0064,0.3867 -0.0193,0.725c-0.2439,0.0644 -0.4365,0.0967 -0.5777,0.0967c-0.1027,0 -0.353,-0.0483 -0.751,-0.145c-0.1155,-0.3061 -0.2439,-0.7492 -0.3851,-1.3292c-0.2952,-1.2728 -0.6162,-2.0139 -0.9628,-2.2233c-0.6162,-0.3867 -2.5545,-0.58 -5.8151,-0.58c-0.475,0 -1.027,0.0564 -1.656,0.1692c-0.0899,0.6767 -0.1348,1.4581 -0.1348,2.3442l0.0963,7.2501c0.0128,1.3372 0.1284,2.1589 0.3466,2.465c0.1412,0.1933 0.6226,0.3867 1.4442,0.58l0.3851,0.0483c0.5777,0.0483 1.0847,0.1531 1.5212,0.3142l0.5199,0.1469c0.0513,0.4237 0.077,0.7497 0.077,0.978c0,0.2444 -0.0193,0.5542 -0.0578,0.9293l-0.3659,-0.0245l-0.5969,0.0245l-2.7343,-0.1903c-0.3081,-0.0181 -1.7458,-0.0272 -4.3132,-0.0272c-0.706,0 -1.38,0.0483 -2.0218,0.145c-1.0141,0.145 -1.5661,0.2175 -1.656,0.2175c-0.8344,0 -1.4056,-0.0081 -1.7137,-0.0242Z" style="fill:#c79f5a;fill-rule:nonzero;"/><path d="M52.5861,27.7324l0.4429,0.3625c0.1155,0.1128 0.1861,0.2497 0.2118,0.4108l0.0193,0.1208c-0.3081,1.4339 -0.7124,2.4207 -1.2131,2.9604c-0.5006,0.5397 -1.1232,0.8096 -1.8678,0.8096c-0.7574,0 -1.4089,-0.2618 -1.9544,-0.7854c-0.5456,-0.5236 -1.043,-1.446 -1.4923,-2.7671c-0.552,1.2245 -1.3286,2.1468 -2.3299,2.7671c-1.0013,0.6203 -2.2272,0.9304 -3.6778,0.9304c-1.335,0 -2.3171,-0.3504 -2.9461,-1.0513c-0.629,-0.7008 -0.9435,-1.6232 -0.9435,-2.7671c0,-0.5317 0.0931,-1.0714 0.2792,-1.6192c0.1861,-0.5478 0.4878,-1.0915 0.905,-1.6313c0.4172,-0.5397 1.0879,-1.1318 2.0122,-1.7763c0.1412,-0.0967 0.629,-0.3706 1.4634,-0.8217l4.7946,-2.4167c0.0385,-0.6122 0.0578,-1.2325 0.0578,-1.8608c0,-2.175 -0.2118,-3.6572 -0.6354,-4.4467c-0.2567,-0.4833 -0.706,-0.725 -1.3479,-0.725c-0.6418,0 -1.2323,0.1531 -1.7715,0.4592c-0.5392,0.3061 -0.9307,0.7008 -1.1746,1.1842c-0.1797,0.3544 -0.3338,1.0231 -0.4621,2.0058c-0.0899,0.7089 -0.1733,1.1197 -0.2503,1.2325c-0.1926,0.3061 -0.5424,0.584 -1.0494,0.8338c-0.5071,0.2497 -0.8504,0.431 -1.0302,0.5438c-0.6932,0.4189 -1.2452,0.6283 -1.656,0.6283c-0.1797,-0.1933 -0.2696,-0.4672 -0.2696,-0.8217c0,-0.9183 0.154,-1.7078 0.4621,-2.3684c0.4621,-0.9345 1.1585,-1.8407 2.0892,-2.7188c0.9307,-0.8781 1.8004,-1.4943 2.6091,-1.8488c1.104,-0.4511 2.4519,-0.6767 4.0436,-0.6767c1.027,0 1.9095,0.2376 2.6476,0.7129c0.7381,0.4753 1.2516,1.1801 1.5404,2.1146c0.2888,0.9345 0.4332,2.6181 0.4332,5.0509l-0.0578,3.9875l0.0385,2.9242l0,0.7492c0,0.6767 0.0738,1.1399 0.2214,1.3896c0.1476,0.2497 0.337,0.3746 0.568,0.3746c0.1412,0 0.2632,-0.0483 0.3659,-0.145l0.5777,-1.1358l0.3466,-0.1692Zm-6.3158,-5.6067c-0.7317,0.3061 -1.5565,0.8176 -2.4743,1.5346c-0.9178,0.7169 -1.5565,1.4379 -1.9159,2.1629c-0.2567,0.5317 -0.3851,1.1842 -0.3851,1.9575c0,0.6928 0.1669,1.2647 0.5006,1.7158c0.3338,0.4511 0.7189,0.6767 1.1553,0.6767c0.7189,0 1.3286,-0.2578 1.8293,-0.7733c0.6804,-0.6928 1.0783,-1.2446 1.1938,-1.6554c0.1155,-0.4108 0.1733,-1.5749 0.1733,-3.4921c0,-0.7089 -0.0257,-1.4178 -0.077,-2.1267Z" style="fill:#c79f5a;fill-rule:nonzero;"/><path d="M56.9763,3.4447c0,-0.87 0.2246,-1.5829 0.6739,-2.1388c0.4493,-0.5558 1.027,-0.8338 1.733,-0.8338c0.7574,0 1.3864,0.294 1.887,0.8821c0.5006,0.5881 0.751,1.2526 0.751,1.9938c0,0.5478 -0.0995,1.0956 -0.2985,1.6433c-0.199,0.5478 -0.5135,0.9868 -0.9435,1.3171c-0.43,0.3303 -0.8697,0.4954 -1.319,0.4954c-0.6162,0 -1.1842,-0.3303 -1.7041,-0.9908c-0.5199,-0.6606 -0.7798,-1.45 -0.7798,-2.3684Zm-2.6958,28.831l-0.0385,-1.5708l2.1759,-0.3625c0.3209,-0.1128 0.5424,-0.2779 0.6643,-0.4954c0.122,-0.2175 0.1829,-0.7049 0.1829,-1.4621l0,-0.2658c0,-0.1933 0.0096,-0.5438 0.0289,-1.0513c0.0193,-0.5075 0.0289,-0.9546 0.0289,-1.3413c0,-0.3061 -0.0193,-0.8942 -0.0578,-1.7642l0.0193,-1.2083l-0.0193,-1.1358l0.0385,-3.9392c0,-0.4994 -0.0385,-1.015 -0.1155,-1.5467c-0.1412,-0.2417 -0.3979,-0.4511 -0.7702,-0.6283c-0.3723,-0.1772 -1.0205,-0.3061 -1.9448,-0.3867l0,-1.3533c1.3222,-0.0967 2.4839,-0.4431 3.4852,-1.0392c0.6804,-0.3867 1.4185,-1.0714 2.2144,-2.0542l1.2901,0c0.0513,1.9978 0.077,4.5917 0.077,7.7817l-0.1348,9.8601c0,0.6767 0.0257,1.2889 0.077,1.8367c0.3979,0.1772 1.0462,0.3544 1.9448,0.5317c0.3466,0.0644 0.6226,0.145 0.828,0.2417l-0.0193,1.3292c-0.3466,0.0161 -0.6033,0.0242 -0.7702,0.0242c-0.1926,0 -0.4878,-0.0161 -0.8857,-0.0483c-1.3094,-0.0806 -3.0616,-0.1208 -5.2567,-0.1208c-0.629,0 -1.2388,0.0282 -1.8293,0.0846c-0.5905,0.0564 -0.9949,0.0846 -1.2131,0.0846Z" style="fill:#c79f5a;fill-rule:nonzero;"/><path d="M65.8916,13.9486c1.5148,-0.8043 2.6091,-1.5926 3.283,-2.365c0.6739,-0.7723 1.396,-2.0272 2.1662,-3.7647l1.0783,0c0.1155,0.4189 0.1733,0.862 0.1733,1.3292c0,0.8378 -0.0064,1.4903 -0.0193,1.9575l-0.0578,1.4258c0,0.0806 0.0064,0.2658 0.0193,0.5558l0.4429,0.0242c0.0642,0 0.6675,-0.0322 1.81,-0.0967c0.0899,0 0.5712,-0.0161 1.4442,-0.0483c0.077,0.4307 0.1155,0.8136 0.1155,1.1487c0,0.367 -0.0449,0.7979 -0.1348,1.2925c-0.4236,0.0964 -0.7445,0.1446 -0.9628,0.1446c-0.1027,0 -0.3081,-0.0322 -0.6162,-0.0967l-1.0013,0l-0.3466,-0.0238l-0.9243,0.0721l-0.0385,9.2321c-0.0128,1.7883 0.016,2.904 0.0866,3.3471c0.0706,0.4431 0.2214,0.866 0.4525,1.2688c0.2952,0.177 0.6226,0.2655 0.982,0.2655c0.3466,0 0.6033,-0.0402 0.7702,-0.1205c0.1669,-0.0806 0.4493,-0.3138 0.8472,-0.6997c0.077,-0.0806 0.199,-0.1932 0.3659,-0.338c0.3081,0.3056 0.5584,0.6112 0.751,0.9168l0.077,0.2896c-0.4493,0.8861 -1.0815,1.5829 -1.8967,2.0904c-0.8151,0.5075 -1.6848,0.7613 -2.6091,0.7613c-1.1938,0 -2.163,-0.4745 -2.9076,-1.4236c-0.7445,-0.9493 -1.1168,-2.4215 -1.1168,-4.4165l0.077,-4.2473l0,-6.8777l-0.5969,-0.0483l-1.3864,0.0483l-0.2503,-0.1205c-0.077,-0.1435 -0.1155,-0.2791 -0.1155,-0.4067c0,-0.0957 0.0128,-0.4545 0.0385,-1.0766Z" style="fill:#c79f5a;fill-rule:nonzero;"/><path d="M77.8107,30.7532c0.2054,-0.0644 0.7766,-0.1611 1.7137,-0.29c0.4108,-0.0644 0.6675,-0.1772 0.7702,-0.3383c0.1284,-0.2417 0.1926,-0.8136 0.1926,-1.7158l0,-1.7158l0.0578,-1.8125l0,-1.9817l0.0193,-0.4833l-0.0193,-1.2083l0.0385,-0.4108l0.077,-8.7726l0,-0.6767c0,-2.9967 -0.0642,-4.8495 -0.1926,-5.5584c-0.077,-0.4189 -0.2599,-0.7492 -0.5488,-0.9908c-0.2888,-0.2417 -0.966,-0.4672 -2.0314,-0.6767l0,-0.5075c0,-0.2417 0.0128,-0.5397 0.0385,-0.8942l1.6175,-0.435c0.3209,-0.1128 0.629,-0.2094 0.9243,-0.29c0.7189,-0.1933 1.6239,-0.5961 2.715,-1.2083c0.1926,-0.145 0.3723,-0.2658 0.5392,-0.3625l1.0398,0.0967l-0.0385,14.4518c1.1682,-1.16 2.2336,-1.9817 3.1964,-2.465c0.9628,-0.4833 1.964,-0.725 3.0038,-0.725c0.9884,0 1.8453,0.2215 2.5706,0.6646c0.7253,0.4431 1.2869,0.9908 1.6848,1.6433c0.3979,0.6525 0.6804,1.446 0.8472,2.3804c0.1155,0.6283 0.1733,1.8367 0.1733,3.625l0,1.5467l0.0193,3.4075l-0.0963,4.93c0.0513,0.145 0.1091,0.2417 0.1733,0.29c0.154,0.0806 0.5327,0.1933 1.1361,0.3383c0.3466,0.0806 0.6162,0.1531 0.8087,0.2175c0.1027,0.2399 0.154,0.4317 0.154,0.5755l-0.0193,0.1918c-0.0257,0.176 -0.0385,0.4398 -0.0385,0.7915l-0.4429,0.0363c-0.1926,0 -0.5712,-0.0322 -1.1361,-0.0967c-1.0783,-0.1289 -1.9833,-0.1933 -2.715,-0.1933c-0.475,0 -1.1104,0.0322 -1.9063,0.0967c-0.5648,0.0322 -1.2837,0.0483 -2.1566,0.0483c-0.1412,0 -0.2696,-0.0242 -0.3851,-0.0725l0,-0.58l-0.0385,-0.3142c0,-0.1289 0.0321,-0.3061 0.0963,-0.5317c0.2952,-0.1772 0.6386,-0.294 1.0302,-0.3504c0.3915,-0.0564 0.7606,-0.1168 1.1072,-0.1813c0.0513,-0.3061 0.0834,-0.4994 0.0963,-0.58l0.0963,-3.5284l0,-5.9209c0,-1.7561 -0.077,-2.9443 -0.2311,-3.5646c-0.154,-0.6203 -0.475,-1.1278 -0.9628,-1.5225c-0.4878,-0.3947 -1.0783,-0.5921 -1.7715,-0.5921c-0.8087,0 -1.595,0.2376 -2.3588,0.7129c-0.7638,0.4753 -1.4153,1.0351 -1.9544,1.6796l0,4.2292c0,2.32 -0.0193,4.06 -0.0578,5.22c-0.0257,0.6928 -0.0385,1.1278 -0.0385,1.305c0,1.1117 0.0578,1.877 0.1733,2.2959c0.0513,0.1933 0.1926,0.3706 0.4236,0.5317c0.475,0.0483 0.8697,0.0765 1.1842,0.0846c0.3145,0.0081 0.568,0.0443 0.7606,0.1088c0.0257,0.397 0.0385,0.6749 0.0385,0.8338c0,0.2223 -0.0257,0.4921 -0.077,0.8096l-2.1373,-0.1088c-0.8087,-0.0725 -1.534,-0.1088 -2.1759,-0.1088l-2.6958,0.1692l-1.887,-0.0242c-0.1284,-0.2256 -0.2632,-0.6283 -0.4044,-1.2083l0,-0.3142Z" style="fill:#c79f5a;fill-rule:nonzero;"/><path d="M211.5222,2.8523c0.089,0.4629 0.1908,1.3767 0.3052,2.7415c0.1145,1.3647 0.1717,2.3584 0.1717,2.9809c0,0.2394 -0.0445,0.5347 -0.1335,0.8859c-0.5469,-0.016 -1.0111,-0.0798 -1.3926,-0.1915c-0.9666,-1.8676 -1.647,-3.0408 -2.0412,-3.5196c-0.7376,-0.8939 -1.6851,-1.6521 -2.8425,-2.2746c-0.8521,-0.4629 -1.8314,-0.6943 -2.9379,-0.6943c-2.1239,0 -3.9934,1.1962 -5.6086,3.5885c-1.6152,2.3921 -2.4228,5.9485 -2.4228,10.6692c0,2.2167 0.3148,4.3697 0.9443,6.459c0.6295,2.089 1.5739,3.7276 2.8329,4.9158c1.2591,1.1882 2.7407,1.7823 4.4449,1.7823c0.8267,0 1.7042,-0.1351 2.6326,-0.4052c0.4706,-0.1272 0.8521,-0.3815 1.1446,-0.7628c0.2035,-0.2544 0.337,-0.6359 0.4006,-1.1444c0.1017,-0.9218 0.1526,-2.2331 0.1526,-3.9338c0,-1.6528 -0.0191,-2.7891 -0.0572,-3.4089c-0.089,-0.2384 -0.1749,-0.3933 -0.2575,-0.4646c-0.0827,-0.0716 -0.3402,-0.1869 -0.7726,-0.3461l-1.6979,-0.572c-0.3688,-0.1117 -0.5977,-0.2474 -0.6868,-0.407c-0.0254,-0.2075 -0.0382,-0.3591 -0.0382,-0.4549c0,-0.2235 0.0445,-0.5347 0.1335,-0.9338c0.2289,-0.0958 0.3879,-0.1437 0.4769,-0.1437c1.3863,0 2.5881,0.0575 3.6056,0.1725c0.3561,0.0287 0.744,0.043 1.1637,0.043l3.0142,-0.0479l1.2782,-0.0479c0.1526,-0.016 0.5787,0 1.2782,0.0479c0.0127,0.415 0.0191,0.7662 0.0191,1.0535c0,0.1756 -0.0445,0.3751 -0.1335,0.5986c-0.2162,0.1626 -0.585,0.3659 -1.1065,0.6098c-0.5214,0.2437 -0.814,0.4062 -0.8775,0.4875c-0.1017,0.1274 -0.1717,0.3267 -0.2098,0.5978c-0.0382,0.2709 -0.0572,1.219 -0.0572,2.8443c0,1.8805 -0.0064,3.0041 -0.0191,3.3707c-0.0509,1.1792 -0.0763,1.8485 -0.0763,2.0078c0,0.5896 -0.0636,0.9561 -0.1908,1.0995c-0.3561,0.4462 -1.4594,0.9522 -3.3099,1.5181c-1.8505,0.5657 -4.003,0.8485 -6.4576,0.8485c-1.7169,0 -3.2081,-0.1716 -4.4736,-0.5148c-1.2654,-0.3432 -2.3433,-0.85 -3.2335,-1.5204c-1.1955,-0.8939 -2.2193,-1.9793 -3.0714,-3.2562c-0.8521,-1.277 -1.488,-2.6577 -1.9077,-4.1421c-0.585,-2.107 -0.8775,-4.206 -0.8775,-6.297c0,-2.3464 0.4324,-4.7247 1.2972,-7.135c0.6359,-1.7399 1.5293,-3.3081 2.6803,-4.7048c1.151,-1.3967 2.5913,-2.51 4.3209,-3.34c1.7296,-0.83 3.6119,-1.245 5.6468,-1.245c0.2544,0 0.6677,0.0399 1.24,0.1197c1.5516,0 3.0014,0.2434 4.3496,0.7303c1.3481,0.4868 2.4673,1.0655 3.3576,1.7359Z" style="fill:#264a4a;fill-rule:nonzero;"/><path d="M216.2151,12.4774c0.1399,-0.0638 0.2544,-0.1117 0.3434,-0.1437l5.6849,0l0.4197,0.0479l0.0191,1.6019l-0.0382,2.343l0.0191,1.2196l-0.0191,3.6101l0,2.4628c0,1.6099 0.0699,2.8771 0.2098,3.8017c0.1908,0.7013 0.4992,1.2313 0.9252,1.59c0.4261,0.3586 0.9443,0.538 1.5548,0.538c0.5723,0 1.0365,-0.0717 1.3926,-0.2151c0.3561,-0.1434 0.7663,-0.4144 1.2305,-0.8129c0.4642,-0.3986 0.7599,-0.6855 0.8871,-0.8608c0.3688,-0.51 0.6232,-0.9803 0.7631,-1.4108l0.1335,-5.9521c0.0254,-0.6215 0.0382,-1.1316 0.0382,-1.5301c0,-0.4143 -0.0095,-0.9361 -0.0286,-1.5656c-0.0191,-0.6295 -0.0286,-0.984 -0.0286,-1.0636l0.0191,-0.8844l-0.0382,-0.526c-0.3052,-0.2389 -0.7313,-0.3903 -1.2782,-0.4542l-1.2782,-0.1197c-0.0763,-0.0479 -0.1463,-0.1038 -0.2098,-0.1676c-0.0509,-0.3192 -0.0763,-0.5587 -0.0763,-0.7183c0,-0.1915 0.0191,-0.4629 0.0572,-0.8141c0.4197,-0.0798 0.7822,-0.1197 1.0874,-0.1197l2.9379,0.0479c0.7885,0 1.7551,-0.016 2.8997,-0.0479l0.0382,1.7931l-0.0572,2.2952l0.0382,2.869l-0.0191,4.1126l-0.0382,1.841l0.0191,1.2432c-0.0509,0.8288 -0.0763,1.2989 -0.0763,1.4104c0,0.3986 0.0572,0.6935 0.1717,0.8848c0.1145,0.1913 0.2226,0.2869 0.3243,0.2869l1.7551,-0.0718l0.2289,0.0479c0.0382,0.5587 0.0572,0.8779 0.0572,0.9577c0,0.1117 -0.0191,0.2873 -0.0572,0.5267c-0.6741,0.0319 -1.1573,0.0878 -1.4499,0.1676c-1.3608,0.3831 -2.8488,0.9497 -4.464,1.6999l-0.7631,-0.0479l-0.0191,-3.9027c-0.1526,0.1596 -0.3752,0.407 -0.6677,0.7422c-1.1192,1.245 -2.0794,2.087 -2.8806,2.526c-0.8012,0.439 -1.6406,0.6584 -2.5182,0.6584c-1.0429,0 -1.9459,-0.271 -2.7089,-0.8129c-0.7631,-0.542 -1.3227,-1.2115 -1.6788,-2.0086c-0.2671,-0.6218 -0.4451,-1.5145 -0.5342,-2.6782c-0.0254,-0.3028 -0.0382,-1.8649 -0.0382,-4.6865l0.0191,-0.7654c0.0636,-1.562 0.0954,-2.7176 0.0954,-3.4669c0,-1.2755 -0.0191,-2.1284 -0.0572,-2.5589c-0.0127,-0.207 -0.0763,-0.4461 -0.1908,-0.7172c-0.1781,-0.0958 -0.3879,-0.1676 -0.6295,-0.2155c-0.814,-0.1756 -1.3227,-0.3431 -1.5262,-0.5024c-0.0636,-0.0479 -0.0954,-0.1516 -0.0954,-0.3113c0,-0.0958 0.0699,-0.8057 0.0954,-1.1728Z" style="fill:#264a4a;fill-rule:nonzero;"/><path d="M254.5408,27.346l0.4388,0.3591c0.1145,0.1117 0.1844,0.2474 0.2098,0.407l0.0191,0.1197c-0.3052,1.4206 -0.7058,2.3983 -1.2019,2.933c-0.496,0.5347 -1.1128,0.8021 -1.8505,0.8021c-0.7504,0 -1.3958,-0.2594 -1.9363,-0.7781c-0.5405,-0.5188 -1.0333,-1.4326 -1.4785,-2.7415c-0.5469,1.2131 -1.3163,2.1269 -2.3083,2.7415c-0.992,0.6145 -2.2066,0.9218 -3.6437,0.9218c-1.3227,0 -2.2956,-0.3472 -2.9188,-1.0415c-0.6232,-0.6943 -0.9348,-1.6082 -0.9348,-2.7415c0,-0.5267 0.0922,-1.0615 0.2766,-1.6042c0.1844,-0.5427 0.4833,-1.0814 0.8966,-1.6161c0.4133,-0.5347 1.0778,-1.1213 1.9935,-1.7598c0.1399,-0.0958 0.6232,-0.3671 1.4499,-0.8141l4.7502,-2.3943c0.0382,-0.6066 0.0572,-1.2211 0.0572,-1.8436c0,-2.1549 -0.2098,-3.6234 -0.6295,-4.4055c-0.2544,-0.4789 -0.6995,-0.7183 -1.3354,-0.7183c-0.6359,0 -1.2209,0.1516 -1.7551,0.4549c-0.5342,0.3033 -0.9221,0.6943 -1.1637,1.1732c-0.1781,0.3512 -0.3307,1.0136 -0.4578,1.9873c-0.089,0.7023 -0.1717,1.1094 -0.248,1.2211c-0.1908,0.3033 -0.5373,0.5786 -1.0397,0.826c-0.5024,0.2474 -0.8426,0.427 -1.0206,0.5387c-0.6868,0.415 -1.2336,0.6225 -1.6406,0.6225c-0.1781,-0.1915 -0.2671,-0.4629 -0.2671,-0.8141c0,-0.9098 0.1526,-1.692 0.4578,-2.3464c0.4578,-0.9258 1.1478,-1.8237 2.0699,-2.6936c0.9221,-0.8699 1.7837,-1.4805 2.5849,-1.8316c1.0937,-0.4469 2.4291,-0.6704 4.0062,-0.6704c1.0174,0 1.8918,0.2354 2.6231,0.7063c0.7313,0.4709 1.24,1.1692 1.5262,2.095c0.2862,0.9258 0.4292,2.5938 0.4292,5.0041l-0.0572,3.9506l0.0382,2.8971l0,0.7422c0,0.6704 0.0731,1.1293 0.2194,1.3767c0.1463,0.2474 0.3338,0.3711 0.5628,0.3711c0.1399,0 0.2607,-0.0479 0.3625,-0.1437l0.5723,-1.1253l0.3434,-0.1676Zm-6.2573,-5.5548c-0.7249,0.3033 -1.5421,0.8101 -2.4514,1.5204c-0.9093,0.7103 -1.5421,1.4246 -1.8982,2.1429c-0.2544,0.5267 -0.3815,1.1732 -0.3815,1.9394c0,0.6864 0.1653,1.253 0.496,1.6999c0.3307,0.4469 0.7122,0.6704 1.1446,0.6704c0.7122,0 1.3163,-0.2554 1.8123,-0.7662c0.6741,-0.6864 1.0683,-1.2331 1.1828,-1.6401c0.1145,-0.407 0.1717,-1.5603 0.1717,-3.4598c0,-0.7023 -0.0254,-1.4047 -0.0763,-2.107Z" style="fill:#264a4a;fill-rule:nonzero;"/><path d="M256.3531,30.6385c0.1653,-0.1813 0.3815,-0.3131 0.6486,-0.3954c0.6486,-0.1753 1.2654,-0.4941 1.8505,-0.9562c0.1145,-0.3823 0.1717,-1.673 0.1717,-3.872c0,-4.0316 -0.0699,-6.7567 -0.2098,-8.175c-0.0254,-0.2549 -0.1272,-0.478 -0.3052,-0.6693c-0.3179,-0.2073 -0.7504,-0.3906 -1.2972,-0.5499c-0.2544,-0.0796 -0.407,-0.255 -0.4578,-0.5264l-0.0572,-0.8859c0.9411,-0.1596 1.7932,-0.5627 2.5563,-1.2091c0.7631,-0.6465 1.3354,-1.3049 1.7169,-1.9753c0.2035,-0.3671 0.3815,-0.6465 0.5342,-0.838l1.3354,-0.0479c0.0636,0.3671 0.0954,0.6704 0.0954,0.9098c0,0.1756 -0.0064,0.3911 -0.0191,0.6465c-0.0127,0.5587 -0.0191,1.0216 -0.0191,1.3887c0,0.1756 0.0064,0.838 0.0191,1.9873c0.5214,-1.1173 0.903,-1.8676 1.1446,-2.2506c0.1145,-0.1756 0.4515,-0.5666 1.0111,-1.1732c0.4324,-0.399 0.9221,-0.5986 1.4689,-0.5986c0.6741,0 1.2591,0.2873 1.7551,0.8619c0.496,0.5746 0.744,1.2371 0.744,1.9873c0,0.7502 -0.1876,1.4246 -0.5628,2.0232c-0.3752,0.5986 -0.8744,0.8979 -1.4975,0.8979c-0.5469,0 -1.1192,-0.2873 -1.7169,-0.8619c-0.3561,-0.3512 -0.6423,-0.5267 -0.8585,-0.5267l-0.1335,0.0239c-0.2671,0.1112 -0.5087,0.4135 -0.7249,0.9068c-0.3561,0.7954 -0.5342,1.6225 -0.5342,2.4815l0.0382,0.6442c0.0509,1.1772 0.089,3.9372 0.1145,8.2801c0.0382,0.3978 0.159,0.7956 0.3625,1.1934c0.2289,0.2227 0.461,0.3818 0.6963,0.4774c0.2353,0.0953 0.6454,0.1753 1.2305,0.2402c0.585,0.0646 0.9411,0.1657 1.0683,0.3034c0.1272,0.1374 0.1908,0.3599 0.1908,0.6674c0,0.1778 -0.0382,0.4124 -0.1145,0.7037l-1.7932,0l-3.6437,-0.2155c-0.9157,0 -1.7487,0.0479 -2.4991,0.1437l-0.3243,0c-0.089,0 -0.7504,0.0399 -1.984,0.1197c-0.0382,-0.2636 -0.0572,-0.4613 -0.0572,-0.593c0,-0.1317 0.0191,-0.321 0.0572,-0.5679Z" style="fill:#264a4a;fill-rule:nonzero;"/><path d="M274.0756,13.483c0.6232,-0.5427 1.2241,-0.9338 1.8028,-1.1732c0.5787,-0.2394 1.3958,-0.423 2.4514,-0.5507l1.0683,0c1.3863,0 2.7153,0.5986 3.9871,1.7957l0.0382,-0.5746l-0.0191,-1.6042l0.0763,-2.5619c0,-2.6976 -0.1653,-4.4055 -0.496,-5.1238c-0.1908,-0.431 -0.5246,-0.6624 -1.0015,-0.6943c-0.4769,-0.0319 -0.8616,-0.1357 -1.1542,-0.3113l0,-1.1493c0.2416,-0.0958 0.5532,-0.1476 0.9348,-0.1556c0.3815,-0.008 1.1255,-0.1716 2.232,-0.4908l0.6486,-0.1676l1.8886,-0.5507c0.3815,-0.1117 0.6168,-0.1676 0.7058,-0.1676c0.0636,0 0.1653,0.016 0.3052,0.0479c0.0763,0.3352 0.1145,0.5826 0.1145,0.7422l-0.0191,0.3591l0,0.431c0,0.4469 0.0191,1.6361 0.0572,3.5675l0,1.2929l0.0191,0.6943l-0.0191,1.1971l0.0572,2.4901l-0.0382,1.4605c-0.0254,0.6385 -0.0382,1.6441 -0.0382,3.0168c0,0.2235 0.0064,0.423 0.0191,0.5986l0,0.8859c-0.0127,0.2554 -0.0191,0.4469 -0.0191,0.5746c0,0.2394 0.0191,0.5826 0.0572,1.0295l0,1.3169l-0.0191,0.5028c-0.0254,0.4629 -0.0382,1.1014 -0.0382,1.9154c0,0.83 0.0127,1.5802 0.0382,2.2506c0.0127,0.2714 0.0191,0.5188 0.0191,0.7422l0,1.7957c0,0.5746 0.0127,1.261 0.0382,2.0591c0.2289,0.1756 0.7885,0.3033 1.6788,0.3831c0.2798,0.016 0.5278,0.0559 0.744,0.1197c0.0636,0.2394 0.0954,0.415 0.0954,0.5267c0,0.1437 -0.0445,0.3591 -0.1335,0.6465c-0.5214,0.1596 -1.0683,0.2793 -1.6406,0.3591c-1.7424,0.2714 -2.9824,0.6544 -3.72,1.1493c-0.3561,0.2554 -0.6041,0.3831 -0.744,0.3831c-0.1399,0 -0.2989,-0.016 -0.4769,-0.0479c0.0127,-0.2896 0.0191,-0.4745 0.0191,-0.5548c0,-1.0936 -0.0191,-1.7932 -0.0572,-2.0987c-0.1908,0.1289 -0.4261,0.298 -0.7058,0.5073c-0.8521,0.6442 -1.6279,1.0912 -2.3274,1.3408c-0.6995,0.2497 -1.5007,0.3745 -2.4037,0.3745c-1.6025,0 -2.8806,-0.3831 -3.8345,-1.1493c-1.4117,-1.1173 -2.3878,-2.4581 -2.9283,-4.0224c-0.5405,-1.5643 -0.8108,-3.2802 -0.8108,-5.1477c0,-3.2243 1.1828,-5.9778 3.5483,-8.2603Zm5.8757,15.8263c0.2671,0.0319 0.496,0.0479 0.6868,0.0479c0.4197,0 0.868,-0.1096 1.3449,-0.3288c0.4769,-0.2195 0.9825,-0.5408 1.5166,-0.9641c0.0127,-0.5267 0.0191,-0.854 0.0191,-0.9817c0,-5.0599 -0.0572,-8.1087 -0.1717,-9.1462c-0.1526,-1.3887 -0.5723,-2.4581 -1.2591,-3.2084c-0.6868,-0.7502 -1.5198,-1.1253 -2.4991,-1.1253c-0.5596,0 -1.0906,0.1276 -1.5929,0.3827c-0.5024,0.2549 -0.9125,0.6214 -1.2305,1.0995c-0.4706,0.7013 -0.8267,1.4982 -1.0683,2.3906c-0.3307,1.2433 -0.496,2.4068 -0.496,3.4904c0,2.5978 0.4388,4.5861 1.3163,5.9648c0.8775,1.3785 2.0222,2.1713 3.4339,2.3786Z" style="fill:#264a4a;fill-rule:nonzero;"/></g><g id="Cross"><path d="M179.7353,17.4827l-5.385,0c0,0 -9.3276,-4.1342 -11.5393,-7.1636l21.6633,0c0,0 -2.0465,5.9135 -4.739,7.1636Z" style="fill:#878786;"/><path d="M137.0022,16.5181l-4.6157,-5.1442l-7.9814,0l-0.7693,-8.7991l-4.2311,-2.6925l-0.1923,11.4916l-12.0201,0l3.6541,4.7596l8.0775,0l-0.1923,11.1547l4.808,4.7119l-0.0962,-15.6742l13.5587,0.1923Z" style="fill:#878786;"/></g><path d="M140.2734,19.7275l0.0146,-0.5342c0.1074,-0.0247 0.2856,-0.0615 0.5347,-0.1102c0.249,-0.0488 0.498,-0.1049 0.7471,-0.1683l0.1392,-0.0878c0.0488,-0.1952 0.0732,-0.3952 0.0732,-0.6001l0,-0.0438l-0.0293,-1.6904l0.0073,-0.7098l-0.0293,-1.0464l0.0146,-1.244l-0.0879,-2.4514c-0.0732,-0.0684 -0.3101,-0.1367 -0.7104,-0.2051c-0.0977,-0.0195 -0.2393,-0.0586 -0.4248,-0.1172l-0.1758,-0.0439l0,-0.5127l0.9668,0.0366c0.5859,0.0586 1.4478,0.0879 2.5854,0.0879c0.5713,0 1.167,-0.0146 1.7871,-0.0439l0.1392,-0.0073l0.3589,0.0073l0.1465,-0.0073l0.3076,0l1.311,-0.0439c0.0586,0 0.1355,-0.0049 0.2307,-0.0146c0.0952,-0.0098 0.1843,-0.0171 0.2673,-0.022c0.0293,0.1465 0.0488,0.293 0.0586,0.4395l0.1099,1.377c0,0.1465 -0.0146,0.2588 -0.0439,0.3369c-0.1758,0.0244 -0.3052,0.0366 -0.3882,0.0366c-0.0977,0 -0.1758,-0.022 -0.2344,-0.0659c-0.0293,-0.0293 -0.0854,-0.1392 -0.1685,-0.3296c-0.2051,-0.4932 -0.3796,-0.7849 -0.5237,-0.8752c-0.144,-0.0903 -0.5457,-0.1355 -1.2048,-0.1355l-1.0107,0.0293c-0.4297,0.0049 -0.769,0.0293 -1.0181,0.0732c-0.0537,0.0098 -0.1318,0.0342 -0.2344,0.0732c-0.0635,0.1125 -0.0952,0.2569 -0.0952,0.433l0.022,0.8735l-0.022,0.9982c0,0.509 0.0171,0.8221 0.0513,0.9396c0.0439,0.0294 0.0806,0.0467 0.1099,0.0516l0.52,0.0073l0.8789,0c0.1953,0 0.4956,-0.0244 0.9009,-0.0732c0.2783,-0.0342 0.4492,-0.0732 0.5127,-0.1172c0.1172,-0.0781 0.2014,-0.177 0.2527,-0.2966c0.0513,-0.1196 0.0891,-0.4114 0.1135,-0.8752c0.0244,0 0.3125,-0.0146 0.3369,-0.0146c0.0537,0 0.1611,0.0073 0.3223,0.022l-0.0439,1.1719c-0.0049,0.249 -0.0146,0.4639 -0.0293,0.6445l0.0146,0.1611c0.0049,0.0488 0.0073,0.4102 0.0073,1.084c0,0.0439 -0.0024,0.1172 -0.0073,0.2197c-0.0928,0.0195 -0.166,0.0293 -0.2197,0.0293c-0.0391,0 -0.1343,-0.0146 -0.2856,-0.0439c-0.0439,-0.0928 -0.0928,-0.2271 -0.1465,-0.4028c-0.1123,-0.3857 -0.2344,-0.6104 -0.3662,-0.6738c-0.2344,-0.1172 -0.9717,-0.1758 -2.2119,-0.1758c-0.1807,0 -0.3906,0.0171 -0.6299,0.0513c-0.0342,0.2051 -0.0513,0.4419 -0.0513,0.7104l0.0366,2.1973c0.0049,0.4053 0.0488,0.6543 0.1318,0.7471c0.0537,0.0586 0.2368,0.1172 0.5493,0.1758l0.1465,0.0146c0.2197,0.0146 0.4126,0.0464 0.5786,0.0952l0.1978,0.0445c0.0195,0.1284 0.0293,0.2272 0.0293,0.2964c0,0.0741 -0.0073,0.168 -0.022,0.2816l-0.1392,-0.0074l-0.2271,0.0074l-1.04,-0.0577c-0.1172,-0.0055 -0.6641,-0.0082 -1.6406,-0.0082c-0.2686,0 -0.5249,0.0146 -0.769,0.0439c-0.3857,0.0439 -0.5957,0.0659 -0.6299,0.0659c-0.3174,0 -0.5347,-0.0024 -0.6519,-0.0073Z" style="fill:#878786;fill-rule:nonzero;"/><path d="M158.5327,10.8139c0.0342,0.1416 0.0732,0.4211 0.1172,0.8386c0.0439,0.4175 0.0659,0.7214 0.0659,0.9119c0,0.0732 -0.0171,0.1636 -0.0513,0.271c-0.21,-0.0049 -0.3882,-0.0244 -0.5347,-0.0586c-0.3711,-0.5713 -0.6323,-0.9302 -0.7837,-1.0767c-0.2832,-0.2734 -0.647,-0.5054 -1.0913,-0.6958c-0.3271,-0.1416 -0.7031,-0.2124 -1.1279,-0.2124c-0.8154,0 -1.5332,0.3659 -2.1533,1.0977c-0.6201,0.7317 -0.9302,1.8196 -0.9302,3.2637c0,0.6781 0.1208,1.3367 0.3625,1.9758c0.2417,0.639 0.6042,1.1403 1.0876,1.5038c0.4834,0.3635 1.0522,0.5452 1.7065,0.5452c0.3174,0 0.6543,-0.0413 1.0107,-0.1239c0.1807,-0.0389 0.3271,-0.1167 0.4395,-0.2333c0.0781,-0.0778 0.1294,-0.1945 0.1538,-0.3501c0.0391,-0.282 0.0586,-0.6831 0.0586,-1.2033c0,-0.5056 -0.0073,-0.8532 -0.022,-1.0428c-0.0342,-0.0729 -0.0671,-0.1203 -0.0989,-0.1421c-0.0317,-0.0219 -0.1306,-0.0572 -0.2966,-0.1059l-0.6519,-0.175c-0.1416,-0.0342 -0.2295,-0.0757 -0.2637,-0.1245c-0.0098,-0.0635 -0.0146,-0.1099 -0.0146,-0.1392c0,-0.0684 0.0171,-0.1636 0.0513,-0.2856c0.0879,-0.0293 0.1489,-0.0439 0.1831,-0.0439c0.5322,0 0.9937,0.0176 1.3843,0.0528c0.1367,0.0088 0.2856,0.0132 0.4468,0.0132l1.1572,-0.0146l0.4907,-0.0146c0.0586,-0.0049 0.2222,0 0.4907,0.0146c0.0049,0.127 0.0073,0.2344 0.0073,0.3223c0,0.0537 -0.0171,0.1147 -0.0513,0.1831c-0.083,0.0497 -0.2246,0.1119 -0.4248,0.1865c-0.2002,0.0745 -0.3125,0.1242 -0.3369,0.1491c-0.0391,0.039 -0.0659,0.0999 -0.0806,0.1829c-0.0146,0.0829 -0.022,0.3729 -0.022,0.8701c0,0.5753 -0.0024,0.919 -0.0073,1.0311c-0.0195,0.3607 -0.0293,0.5655 -0.0293,0.6142c0,0.1804 -0.0244,0.2925 -0.0732,0.3363c-0.1367,0.1365 -0.5603,0.2913 -1.2708,0.4644c-0.7104,0.173 -1.5369,0.2596 -2.4792,0.2596c-0.6592,0 -1.2317,-0.0525 -1.7175,-0.1575c-0.4858,-0.105 -0.8997,-0.26 -1.2415,-0.4651c-0.459,-0.2734 -0.8521,-0.6055 -1.1792,-0.9961c-0.3271,-0.3906 -0.5713,-0.813 -0.7324,-1.2671c-0.2246,-0.6445 -0.3369,-1.2866 -0.3369,-1.9263c0,-0.7178 0.166,-1.4453 0.498,-2.1826c0.2441,-0.5322 0.5872,-1.012 1.0291,-1.4392c0.4419,-0.4272 0.9949,-0.7678 1.6589,-1.0217c0.6641,-0.2539 1.3867,-0.3809 2.168,-0.3809c0.0977,0 0.2563,0.0122 0.4761,0.0366c0.5957,0 1.1523,0.0745 1.6699,0.2234c0.5176,0.1489 0.9473,0.3259 1.2891,0.531Z" style="fill:#878786;fill-rule:nonzero;"/></svg>